<svg xmlns="http://www.w3.org/2000/svg" width="20" height="20.01" viewBox="0 0 20 20.01"><path d="M-157.717,276.561h-1.172c-.335-.042-.671-.072-1-.128a9.739,9.739,0,0,1-5.408-2.746,9.772,9.772,0,0,1-2.949-8.138,9.545,9.545,0,0,1,2.442-5.591,9.794,9.794,0,0,1,7.085-3.394,9.511,9.511,0,0,1,5.517,1.394,9.858,9.858,0,0,1,4.751,6.876c.07.375.1.757.156,1.136v1.172c-.016.141-.032.281-.048.422a9.885,9.885,0,0,1-2.513,5.663,9.812,9.812,0,0,1-5.72,3.179C-156.957,276.472-157.338,276.51-157.717,276.561Zm-2.141-8.357c-.042-.036-.077-.064-.11-.094q-.742-.679-1.484-1.359c-.39-.355-.766-.727-1.177-1.056a.958.958,0,0,0-1.549.653,1.041,1.041,0,0,0,.386.933q1.613,1.464,3.221,2.933a1,1,0,0,0,1.548-.028l6.211-6.166c.055-.055.11-.111.16-.171a1,1,0,0,0-.274-1.514,1.011,1.011,0,0,0-1.29.234l-5.484,5.484C-159.75,268.1-159.8,268.149-159.859,268.2Z" transform="translate(168.299 -256.551)" fill="#1ba2e9"/></svg>