<svg xmlns="http://www.w3.org/2000/svg" width="16" height="16" viewBox="0 0 16 16"><path d="M-159.834,272.551h-.938c-.268-.034-.537-.058-.8-.1a7.793,7.793,0,0,1-4.327-2.2,7.811,7.811,0,0,1-2.359-6.507,7.631,7.631,0,0,1,1.954-4.471,7.837,7.837,0,0,1,5.668-2.714,7.611,7.611,0,0,1,4.414,1.115,7.883,7.883,0,0,1,3.8,5.5c.056.3.084.605.125.908v.938c-.013.112-.026.225-.038.337a7.9,7.9,0,0,1-2.01,4.528,7.851,7.851,0,0,1-4.576,2.542C-159.225,272.48-159.53,272.51-159.834,272.551Zm-1.713-6.683c-.033-.029-.061-.051-.088-.075q-.594-.543-1.187-1.087c-.312-.284-.613-.582-.942-.845a.767.767,0,0,0-1.239.522.832.832,0,0,0,.309.746q1.29,1.171,2.577,2.345a.8.8,0,0,0,1.239-.022l4.969-4.931c.044-.044.088-.089.128-.137a.8.8,0,0,0-.219-1.211.809.809,0,0,0-1.032.187l-4.387,4.385C-161.459,265.787-161.5,265.825-161.547,265.868Z" transform="translate(168.299 -256.551)" fill="#1ba2e9"/></svg>