<svg xmlns="http://www.w3.org/2000/svg" width="21" height="23" viewBox="0 0 21 23"><g transform="translate(-58 -88)"><g transform="translate(-2074.731 -819.243)"><g transform="translate(2132.731 909.243)"><path d="M2149.731,924.438v.445c-.375,1.052-.624,1.226-1.758,1.226H2134.3c-.091,0-.182,0-.274,0a1.263,1.263,0,0,1-1.248-1.042,1.9,1.9,0,0,1,.725-1.953c.221-.186.463-.347.7-.519a2.327,2.327,0,0,0,.995-1.643,8.731,8.731,0,0,0,.059-.934c.011-1.349-.006-2.7.024-4.048a4.179,4.179,0,0,1,.984-2.559,6.048,6.048,0,0,1,2.752-1.876c.729-.263.729-.261.757-1.045a1.154,1.154,0,0,1,.869-1.159,2.307,2.307,0,0,1,.951-.059,1.193,1.193,0,0,1,1.081,1.264c.005.131.016.263.027.394a.522.522,0,0,0,.4.5,8.517,8.517,0,0,1,1.237.51,4.839,4.839,0,0,1,2.858,4.649c-.027,1.217.005,2.436-.008,3.654a2.721,2.721,0,0,0,1.3,2.533A2.506,2.506,0,0,1,2149.731,924.438Z" transform="translate(-2132.731 -909.243)" fill="#282828"/><path d="M2244.145,1277.869h5.9a2.575,2.575,0,0,1-1.273,2.25,2.868,2.868,0,0,1-3.185.1A2.655,2.655,0,0,1,2244.145,1277.869Z" transform="translate(-2238.604 -1259.652)" fill="#282828"/></g></g><circle cx="3.5" cy="3.5" r="3.5" transform="translate(72 88)" fill="red"/></g></svg>