<svg xmlns="http://www.w3.org/2000/svg" width="17" height="23" viewBox="0 0 17 23"><path d="M-1967.567-216.812a5.1,5.1,0,0,0-.2-.657,2.332,2.332,0,0,0-2.236-1.495c-1.455-.01-2.909-.007-4.364,0v0h-8.108a6.539,6.539,0,0,0-.977.4,2.322,2.322,0,0,0-1.073,1.61c-.01.05-.028.1-.043.146v18.685a5.114,5.114,0,0,0,.2.657,2.332,2.332,0,0,0,2.237,1.495c1.83.013,3.661,0,5.491,0h6.537a2.438,2.438,0,0,0,2.535-2.6q0-4.689,0-9.379v-8.858Zm-8.634,8.171q2.373,0,4.747,0a.669.669,0,0,1,.652.925.631.631,0,0,1-.614.42c-.385.005-.769,0-1.154,0h-8.275a1.314,1.314,0,0,1-.281-.017.674.674,0,0,1-.518-.727.664.664,0,0,1,.673-.6q2.145,0,4.29,0Zm-5.75-4.954a.666.666,0,0,1,.643-.659c.217-.008.436,0,.653,0h.665c0-.434,0-.844,0-1.254a.679.679,0,0,1,.649-.766.677.677,0,0,1,.658.757c0,.411,0,.821,0,1.263.43,0,.848,0,1.266,0a.647.647,0,0,1,.6.334.67.67,0,0,1-.56,1.012c-.218.008-.436,0-.654,0h-.654c0,.455.006.894,0,1.333a.648.648,0,0,1-.95.609.662.662,0,0,1-.355-.622c0-.432,0-.864,0-1.319-.454,0-.888.008-1.321,0A.661.661,0,0,1-1981.951-213.595Zm4.075,13.487c-.509,0-1.017,0-1.526,0s-1.017,0-1.525,0a.67.67,0,0,1-.719-.672.669.669,0,0,1,.717-.674q1.525,0,3.051,0a.674.674,0,0,1,.711.683A.674.674,0,0,1-1977.876-200.108Zm7.059-3.979a.66.66,0,0,1-.657.388q-2.3,0-4.595,0h-.152q-2.362,0-4.725,0a.669.669,0,0,1-.618-.99.642.642,0,0,1,.61-.357h2.352q3.571,0,7.142,0A.669.669,0,0,1-1970.817-204.087Z" transform="translate(1984.567 218.972)" fill="#fd2"/></svg>