<svg xmlns="http://www.w3.org/2000/svg" width="13.019" height="17.613" viewBox="0 0 13.019 17.613"><path d="M-1971.548-217.318a3.9,3.9,0,0,0-.153-.5,1.786,1.786,0,0,0-1.713-1.145c-1.114-.008-2.228-.005-3.342,0v0h-6.209a5.008,5.008,0,0,0-.748.307,1.778,1.778,0,0,0-.822,1.233c-.007.038-.022.075-.033.112v14.309a3.92,3.92,0,0,0,.153.5,1.786,1.786,0,0,0,1.713,1.145c1.4.01,2.8,0,4.2,0h5.006a1.867,1.867,0,0,0,1.941-1.992q0-3.591,0-7.182v-6.783Zm-6.612,6.258q1.818,0,3.635,0a.512.512,0,0,1,.5.709.483.483,0,0,1-.47.321c-.295,0-.589,0-.884,0h-6.337a1.006,1.006,0,0,1-.215-.013.516.516,0,0,1-.4-.556.508.508,0,0,1,.516-.461q1.643,0,3.285,0Zm-4.4-3.793a.51.51,0,0,1,.492-.5c.167-.006.333,0,.5,0h.509c0-.333,0-.647,0-.96a.52.52,0,0,1,.5-.587.518.518,0,0,1,.5.58c0,.315,0,.629,0,.967.329,0,.649,0,.969,0a.5.5,0,0,1,.461.256.513.513,0,0,1-.429.775c-.167.006-.333,0-.5,0h-.5c0,.348,0,.685,0,1.021a.5.5,0,0,1-.728.466.507.507,0,0,1-.272-.477c0-.331,0-.662,0-1.01-.348,0-.68.006-1.012,0A.506.506,0,0,1-1982.564-214.854Zm3.12,10.328c-.389,0-.779,0-1.168,0s-.779,0-1.168,0a.513.513,0,0,1-.551-.515.512.512,0,0,1,.549-.516q1.168,0,2.336,0a.517.517,0,0,1,.544.523A.516.516,0,0,1-1979.443-204.526Zm5.406-3.047a.505.505,0,0,1-.5.3q-1.759,0-3.519,0h-.117q-1.809,0-3.619,0a.512.512,0,0,1-.473-.758.492.492,0,0,1,.467-.273h1.8q2.735,0,5.47,0A.512.512,0,0,1-1974.037-207.573Z" transform="translate(1984.567 218.972)" fill="#585858"/></svg>