<svg xmlns="http://www.w3.org/2000/svg" width="23.883" height="29.843" viewBox="0 0 23.883 29.843"><path d="M882.908-2449.8a5.7,5.7,0,0,1-.658-.219,2.456,2.456,0,0,1-1.487-2.191c-.005-.077,0-.155,0-.233q0-10.792,0-21.583a2.485,2.485,0,0,1,1.888-2.545,3.237,3.237,0,0,1,.749-.083q1.573-.013,3.146,0a.366.366,0,0,0,.387-.213,1.436,1.436,0,0,1,1.307-.781c.483-.011.966,0,1.486,0,0-.2,0-.371,0-.543a1.465,1.465,0,0,1,1.433-1.438q1.544-.023,3.088,0a1.463,1.463,0,0,1,1.433,1.438c.005.164,0,.329,0,.528.107.005.2.014.292.015.4,0,.8-.007,1.194,0a1.425,1.425,0,0,1,1.292.756.407.407,0,0,0,.431.239c1.029-.009,2.059-.005,3.088,0a2.507,2.507,0,0,1,2.667,2.66q0,10.778,0,21.555a2.489,2.489,0,0,1-2.072,2.6.351.351,0,0,0-.076.04Zm18.749-2.994v-.4q0-10.037,0-20.074c0-.068,0-.136,0-.2.012-.146-.044-.209-.2-.208-.884.005-1.768,0-2.651.009a.3.3,0,0,0-.219.156,2.517,2.517,0,0,1-2.63,1.832q-3.264,0-6.527,0c-.116,0-.233,0-.349-.011a2.449,2.449,0,0,1-2.234-1.752.278.278,0,0,0-.324-.235c-.816.009-1.632.015-2.448,0-.271-.006-.338.075-.338.341q.011,10.11.006,20.219v.326Zm-2.973-21.875h.335q1.224,0,2.448,0a1.037,1.037,0,0,1,1.185,1.175q0,10.271,0,20.542a1.032,1.032,0,0,1-1.163,1.167H883.916a1.03,1.03,0,0,1-1.168-1.161q0-10.286,0-20.571a1.026,1.026,0,0,1,1.15-1.151c.835,0,1.671,0,2.506,0,.1,0,.2-.01.311-.015v-.979h-.3q-1.5,0-3,0a1.521,1.521,0,0,0-1.657,1.672q0,10.767,0,21.532a1.517,1.517,0,0,0,1.661,1.666h18.564a1.518,1.518,0,0,0,1.668-1.659q0-10.781,0-21.562a1.518,1.518,0,0,0-1.651-1.65q-1.5,0-3,0c-.1,0-.2.009-.31.014Zm-5.966-1.989q-2.17,0-4.34,0c-.482,0-.644.165-.646.649,0,.592-.005,1.185,0,1.777a1.461,1.461,0,0,0,1.526,1.551q3.437.017,6.875,0a1.461,1.461,0,0,0,1.534-1.544c.007-.592,0-1.184,0-1.777,0-.5-.162-.656-.668-.656Q894.859-2476.664,892.718-2476.662Zm1.967-1.008c0-.166.006-.319,0-.471a.479.479,0,0,0-.491-.5q-1.5-.014-2.993,0a.474.474,0,0,0-.482.48c-.01.161,0,.323,0,.493Z" transform="translate(-880.759 2479.648)" fill="#777"/><path d="M999.033-1805.728c-.96,0-1.92,0-2.88,0-.367,0-.587-.194-.584-.5s.225-.491.6-.492q2.88,0,5.761,0c.23,0,.45.049.53.273a.589.589,0,0,1-.025.481.712.712,0,0,1-.488.231C1000.973-1805.717,1000-1805.728,999.033-1805.728Z" transform="translate(-991.581 1830.097)" fill="#777"/><path d="M999.084-2120.752c-.97,0-1.939,0-2.909,0-.4,0-.629-.26-.55-.6a.494.494,0,0,1,.539-.39c.349-.005.7,0,1.047,0h4.6c.077,0,.155,0,.233,0a.51.51,0,0,1,.525.508.493.493,0,0,1-.544.482C1001.043-2120.749,1000.063-2120.752,999.084-2120.752Z" transform="translate(-991.62 2134.18)" fill="#777"/><path d="M999.082-1963.251q-1.44,0-2.88,0c-.4,0-.618-.182-.616-.495s.228-.5.62-.5q2.866,0,5.731,0c.474,0,.744.374.541.737a.527.527,0,0,1-.516.257C1001-1963.253,1000.042-1963.251,999.082-1963.251Z" transform="translate(-991.597 1982.149)" fill="#777"/><path d="M1141.527-1863.853c.718,0,1.437,0,2.155,0,.364,0,.6.2.595.495s-.232.5-.6.5q-2.141,0-4.281,0c-.371,0-.588-.189-.588-.5s.214-.493.588-.494C1140.11-1863.855,1140.819-1863.853,1141.527-1863.853Z" transform="translate(-1129.849 1885.245)" fill="#777"/><path d="M1141.548-2020.442c-.718,0-1.437,0-2.155,0-.372,0-.585-.188-.582-.5s.22-.491.594-.492q2.141,0,4.281,0c.361,0,.593.2.589.5s-.231.488-.6.489C1142.966-2020.441,1142.257-2020.442,1141.548-2020.442Z" transform="translate(-1129.847 2037.353)" fill="#777"/><path d="M1141.563-2177.995c-.719,0-1.437,0-2.155,0-.378,0-.587-.182-.587-.493s.218-.5.589-.5q2.14,0,4.281,0c.364,0,.594.2.593.5s-.227.49-.6.492C1142.98-2177.993,1142.271-2177.995,1141.563-2177.995Z" transform="translate(-1129.857 2189.434)" fill="#777"/><path d="M1340.736-2176.818l1.437-1.44c.076-.075.147-.156.229-.223a.487.487,0,0,1,.684.019.488.488,0,0,1,0,.683c-.244.264-.5.512-.757.766-.391.392-.78.785-1.175,1.173a.509.509,0,0,1-.812,0q-.449-.436-.885-.886a.5.5,0,0,1-.044-.747.5.5,0,0,1,.749.05C1340.352-2177.239,1340.525-2177.042,1340.736-2176.818Z" transform="translate(-1323.34 2189.068)" fill="#777"/><path d="M1340.709-1861.967c.6-.6,1.12-1.135,1.647-1.663a.471.471,0,0,1,.61-.1.453.453,0,0,1,.227.546.693.693,0,0,1-.179.289q-.929.942-1.87,1.873a.5.5,0,0,1-.809,0q-.447-.438-.884-.885a.5.5,0,0,1-.05-.746.5.5,0,0,1,.747.041c.1.093.2.187.287.288S1340.6-1862.108,1340.709-1861.967Z" transform="translate(-1323.326 1885.19)" fill="#777"/><path d="M1340.735-2019.458c.572-.577,1.095-1.108,1.621-1.635a.476.476,0,0,1,.609-.106.455.455,0,0,1,.238.541.6.6,0,0,1-.155.27q-.949.962-1.911,1.912a.5.5,0,0,1-.788-.007q-.458-.446-.9-.9a.492.492,0,0,1-.045-.725.491.491,0,0,1,.746.026C1340.34-2019.9,1340.517-2019.691,1340.735-2019.458Z" transform="translate(-1323.334 2037.188)" fill="#777"/><path d="M997.544-2020.467c-.465,0-.931,0-1.4,0-.348,0-.562-.192-.565-.488a.5.5,0,0,1,.554-.5q1.425-.007,2.85,0a.515.515,0,0,1,.571.492c0,.3-.229.5-.589.5C998.494-2020.464,998.019-2020.467,997.544-2020.467Z" transform="translate(-991.594 2037.377)" fill="#777"/><path d="M997.589-1863.862c.465,0,.931,0,1.4,0,.356,0,.59.211.581.507a.515.515,0,0,1-.578.483q-1.41,0-2.821,0c-.362,0-.582-.2-.575-.509s.22-.479.572-.482C996.639-1863.864,997.114-1863.862,997.589-1863.862Z" transform="translate(-991.603 1885.253)" fill="#777"/><path d="M997.561-2178.021c-.475,0-.95,0-1.425,0a.494.494,0,0,1-.555-.5.5.5,0,0,1,.565-.494q1.425-.007,2.849,0a.51.51,0,0,1,.56.5.507.507,0,0,1-.569.487C998.511-2178.018,998.036-2178.021,997.561-2178.021Z" transform="translate(-991.593 2189.459)" fill="#777"/><path d="M1155.437-2335.49c-.631,0-1.261,0-1.892,0-.37,0-.593-.2-.591-.5s.23-.5.6-.5q1.892-.006,3.784,0c.366,0,.593.2.591.5s-.224.488-.6.49C1156.7-2335.487,1156.067-2335.49,1155.437-2335.49Z" transform="translate(-1143.498 2341.46)" fill="#777"/></svg>