<svg xmlns="http://www.w3.org/2000/svg" width="20.001" height="20" viewBox="0 0 20.001 20"><path d="M-297.268-268.268c-2.313,0-4.625,0-6.938,0a2.976,2.976,0,0,1-3.016-2.514,3.175,3.175,0,0,1-.037-.56q0-6.926,0-13.852a2.974,2.974,0,0,1,2.52-3.035,2.924,2.924,0,0,1,.513-.035q6.961,0,13.922,0a2.97,2.97,0,0,1,3.006,2.525,3.244,3.244,0,0,1,.035.56q0,6.914,0,13.829a2.981,2.981,0,0,1-2.532,3.048,3.561,3.561,0,0,1-.607.034Q-293.834-268.266-297.268-268.268Zm.007-9.374c-.094-.115-.143-.187-.2-.247q-1.533-1.532-3.071-3.061a.991.991,0,0,0-1.428-.025.983.983,0,0,0-.009,1.41q2,2.013,4.011,4.009a.982.982,0,0,0,1.414,0q2.015-1.995,4.011-4.009a.931.931,0,0,0,.274-.815.961.961,0,0,0-.672-.826.957.957,0,0,0-1.035.247q-.713.7-1.413,1.4C-296-278.933-296.608-278.307-297.261-277.643Z" transform="translate(-268.267 307.26) rotate(90)" fill="#f4f4f4"/></svg>