<svg xmlns="http://www.w3.org/2000/svg" width="40" height="40" viewBox="0 0 40 40"><path d="M-603.187-499.08h-34.218c-.1-.028-.2-.058-.294-.084a3.321,3.321,0,0,1-2.442-2.261c-.053-.156-.1-.312-.154-.468v-32.345a.4.4,0,0,0,.057-.1,3.305,3.305,0,0,1,3.435-2.739c.976-.006,1.952,0,2.929,0h.88c.223-1.253.917-2,1.932-1.983a2.724,2.724,0,0,1,1.241.36,1.928,1.928,0,0,1,.882,1.6h17.274c.265-1.29.957-1.97,2-1.985,1.072-.015,1.74.619,2.075,1.969a.239.239,0,0,0,.073.025c1.2,0,2.395,0,3.592.012a4.919,4.919,0,0,1,.97.071,3.324,3.324,0,0,1,2.657,3.426q0,15.269,0,30.537c0,.247,0,.495,0,.742a3.355,3.355,0,0,1-2.251,3.038C-602.761-499.19-602.976-499.139-603.187-499.08Zm-35.778-27.976v.428q0,11.991,0,23.981a2.028,2.028,0,0,0,2.221,2.234h32.885a2.03,2.03,0,0,0,2.231-2.225q0-11.991,0-23.981v-.438Zm.006-1.388h37.332c0-.174,0-.317,0-.459,0-1.666.02-3.333-.016-5a1.838,1.838,0,0,0-1.579-1.786c-1.014-.086-2.042-.02-3.068-.02.7,1.7.757,1.941.584,2.756a3.936,3.936,0,0,1-1.505,2.39,4,4,0,0,1-4.893-.044,3.984,3.984,0,0,1-1.4-2.151,3.565,3.565,0,0,1,.587-2.96h-14.753a3.67,3.67,0,0,1,.646,2.767,3.844,3.844,0,0,1-1.479,2.4,4.135,4.135,0,0,1-4.914,0,3.831,3.831,0,0,1-1.4-2.061,3.637,3.637,0,0,1,.584-3.125c-.989,0-1.909-.02-2.827.005a1.911,1.911,0,0,0-1.885,1.832C-638.987-532.091-638.959-530.282-638.959-528.444Zm9.994-6.642c0,.237,0,.439,0,.641a1.983,1.983,0,0,1-1.988,2.022,1.979,1.979,0,0,1-2-2c0-.211,0-.422,0-.7a2.306,2.306,0,0,0,.138,3.344,2.765,2.765,0,0,0,3.892-.185A2.234,2.234,0,0,0-628.966-535.086Zm21.33-.021c0,.291,0,.51,0,.729a1.977,1.977,0,0,1-1.973,1.955,1.981,1.981,0,0,1-2.015-1.953c-.006-.226,0-.453,0-.725a2.215,2.215,0,0,0,.059,3.184,2.678,2.678,0,0,0,3.843.034A2.231,2.231,0,0,0-607.636-535.107Zm-2.66-.65c0,.428-.007.856,0,1.284a.655.655,0,0,0,.656.714.645.645,0,0,0,.669-.7q.014-1.284,0-2.568a.671.671,0,0,0-.654-.722.683.683,0,0,0-.673.745C-610.3-536.587-610.3-536.172-610.3-535.757Zm-21.331,0c0,.428-.006.856,0,1.284a.651.651,0,0,0,.651.716.646.646,0,0,0,.674-.695q.015-1.3,0-2.607a.666.666,0,0,0-.652-.686.671.671,0,0,0-.672.7C-631.634-536.616-631.627-536.188-631.627-535.759Z" transform="translate(640.296 539.08)" fill="#fff"/><path d="M-507.77-344.432c.452,0,.9-.009,1.355,0a1.328,1.328,0,0,1,1.337,1.345q.018,1.036,0,2.072a1.285,1.285,0,0,1-1.23,1.321c-.995.041-1.993.042-2.987,0a1.283,1.283,0,0,1-1.218-1.331c-.011-.691-.013-1.382,0-2.072a1.326,1.326,0,0,1,1.349-1.333C-508.7-344.441-508.235-344.433-507.77-344.432Zm1.315,1.388h-2.681v1.986h2.681Z" transform="translate(527.796 370.363)" fill="#fff"/><path d="M-457.961-344.432c.452,0,.9-.008,1.355,0a1.3,1.3,0,0,1,1.339,1.254c.033.742.031,1.488,0,2.231a1.252,1.252,0,0,1-1.21,1.252c-.994.042-1.993.043-2.987,0a1.294,1.294,0,0,1-1.237-1.32q-.032-1.035,0-2.072a1.343,1.343,0,0,1,1.384-1.347C-458.865-344.439-458.413-344.432-457.961-344.432Zm-1.359,1.382v1.986h2.683v-1.986Z" transform="translate(484.617 370.362)" fill="#fff"/><path d="M-407.981-344.432c.438,0,.877-.006,1.315,0a1.344,1.344,0,0,1,1.391,1.339c.023.69.022,1.382,0,2.072a1.316,1.316,0,0,1-1.309,1.338c-.942.033-1.887.033-2.829,0a1.3,1.3,0,0,1-1.3-1.336q-.033-1.035,0-2.072a1.321,1.321,0,0,1,1.38-1.342C-408.885-344.438-408.433-344.432-407.981-344.432Zm1.326,3.375v-1.987h-2.678v1.987Z" transform="translate(441.183 370.361)" fill="#fff"/><path d="M-607.705-339.676c-.425,0-.851.011-1.276,0a1.371,1.371,0,0,1-1.43-1.472q-.009-.917,0-1.833a1.357,1.357,0,0,1,1.438-1.456q1.3-.01,2.591,0a1.329,1.329,0,0,1,1.42,1.385q.027,1,0,1.992a1.336,1.336,0,0,1-1.389,1.383C-606.8-339.662-607.253-339.676-607.705-339.676Zm1.352-1.391v-1.978h-2.664v1.978Z" transform="translate(614.496 370.37)" fill="#fff"/><path d="M-557.754-339.676c-.425,0-.851.011-1.276,0a1.349,1.349,0,0,1-1.421-1.434q-.018-.956,0-1.913a1.335,1.335,0,0,1,1.431-1.415q1.3-.01,2.591,0A1.356,1.356,0,0,1-555-343.014q.015.956,0,1.913a1.361,1.361,0,0,1-1.4,1.421C-556.85-339.663-557.3-339.677-557.754-339.676Zm1.378-3.371h-2.682v1.966h2.682Z" transform="translate(571.086 370.371)" fill="#fff"/><path d="M-607.687-384.618c-.425,0-.851.007-1.276,0a1.38,1.38,0,0,1-1.454-1.453q-.012-.936,0-1.874a1.368,1.368,0,0,1,1.454-1.447q1.276-.008,2.552,0a1.346,1.346,0,0,1,1.445,1.407q.024.976,0,1.953a1.36,1.36,0,0,1-1.445,1.414C-606.836-384.611-607.262-384.618-607.687-384.618Zm-1.342-3.395v2h2.667v-2Z" transform="translate(614.502 409.335)" fill="#fff"/><path d="M-557.723-389.391c.439,0,.877-.007,1.316,0a1.351,1.351,0,0,1,1.39,1.346c.022.69.022,1.382,0,2.073a1.342,1.342,0,0,1-1.35,1.348q-1.374.037-2.751,0a1.325,1.325,0,0,1-1.341-1.348c-.022-.69-.022-1.382,0-2.072a1.332,1.332,0,0,1,1.381-1.347C-558.627-389.4-558.175-389.391-557.723-389.391Zm-1.36,3.377h2.687v-1.993h-2.687Z" transform="translate(571.099 409.332)" fill="#fff"/><path d="M-457.919-389.388c.425,0,.851-.005,1.276,0a1.338,1.338,0,0,1,1.406,1.363q.031,1.015,0,2.033a1.334,1.334,0,0,1-1.359,1.373q-1.355.033-2.711,0a1.356,1.356,0,0,1-1.377-1.4q-.019-.976,0-1.953a1.366,1.366,0,0,1,1.449-1.412C-458.8-389.392-458.358-389.388-457.919-389.388ZM-459.3-386h2.68v-2h-2.68Z" transform="translate(484.597 409.329)" fill="#fff"/><path d="M-408-389.391c.452,0,.9-.008,1.356,0a1.345,1.345,0,0,1,1.367,1.327c.026.7.026,1.409,0,2.112a1.331,1.331,0,0,1-1.329,1.325q-1.394.042-2.79,0a1.315,1.315,0,0,1-1.319-1.327c-.024-.7-.025-1.409,0-2.112a1.33,1.33,0,0,1,1.4-1.326C-408.876-389.4-408.438-389.392-408-389.391Zm-1.333,1.381v2h2.669v-2Z" transform="translate(441.184 409.333)" fill="#fff"/><path d="M-557.749-429.608c-.439,0-.877.007-1.316,0a1.336,1.336,0,0,1-1.4-1.334c-.024-.7-.024-1.409,0-2.112a1.326,1.326,0,0,1,1.363-1.326q1.355-.026,2.711,0a1.351,1.351,0,0,1,1.367,1.372q.027,1.016,0,2.033a1.36,1.36,0,0,1-1.414,1.366C-556.872-429.6-557.311-429.608-557.749-429.608Zm1.339-1.373v-2.01h-2.657v2.01Z" transform="translate(571.102 448.339)" fill="#fff"/><path d="M-408.048-429.614c-.439,0-.877.01-1.316,0a1.323,1.323,0,0,1-1.346-1.3c-.028-.716-.027-1.435,0-2.152a1.316,1.316,0,0,1,1.328-1.317c.917-.023,1.834-.021,2.751,0a1.344,1.344,0,0,1,1.359,1.338c.024.7.026,1.409,0,2.112a1.348,1.348,0,0,1-1.377,1.319C-407.117-429.605-407.582-429.614-408.048-429.614Zm1.4-3.392h-2.683v2h2.683Z" transform="translate(441.182 448.345)" fill="#fff"/><path d="M-507.809-294.8c-.452,0-.9.011-1.355,0a1.327,1.327,0,0,1-1.344-1.378q-.013-1,0-1.992a1.318,1.318,0,0,1,1.344-1.377q1.375-.028,2.75,0a1.319,1.319,0,0,1,1.345,1.376q.014,1,0,1.992a1.333,1.333,0,0,1-1.384,1.38C-506.906-294.792-507.357-294.8-507.809-294.8Zm-1.316-3.374v1.987h2.666v-1.987Z" transform="translate(527.789 331.386)" fill="#fff"/><path d="M-607.721-429.6c-.439,0-.878.007-1.316,0a1.363,1.363,0,0,1-1.4-1.384c-.016-.664-.015-1.329,0-1.993a1.358,1.358,0,0,1,1.387-1.395q1.335-.025,2.671,0a1.334,1.334,0,0,1,1.386,1.345c.023.69.023,1.382,0,2.072A1.34,1.34,0,0,1-606.4-429.6C-606.843-429.6-607.282-429.6-607.721-429.6Zm1.339-1.381V-433h-2.67v2.012Z" transform="translate(614.521 448.333)" fill="#fff"/><path d="M-507.783-429.624c-.439,0-.877.006-1.316,0a1.352,1.352,0,0,1-1.41-1.4c-.008-.664-.009-1.329,0-1.993a1.332,1.332,0,0,1,1.317-1.372c.93-.026,1.861-.025,2.791,0a1.334,1.334,0,0,1,1.329,1.361c.011.691.013,1.382,0,2.073a1.337,1.337,0,0,1-1.316,1.332c-.464.018-.93,0-1.4,0Zm-1.341-3.4v2.011h2.67v-2.011Z" transform="translate(527.789 448.355)" fill="#fff"/><path d="M-457.977-429.6c-.439,0-.878.008-1.316,0a1.362,1.362,0,0,1-1.4-1.385q-.023-1,0-1.993a1.358,1.358,0,0,1,1.388-1.393q1.335-.025,2.671,0a1.334,1.334,0,0,1,1.384,1.347c.023.69.023,1.382,0,2.072a1.34,1.34,0,0,1-1.417,1.354C-457.1-429.6-457.539-429.6-457.977-429.6Zm1.344-1.384v-2h-2.675v2Z" transform="translate(484.604 448.333)" fill="#fff"/><path d="M-507.755-389.393c.439,0,.877-.007,1.316,0a1.342,1.342,0,0,1,1.372,1.357c.012.677.01,1.355,0,2.033a1.329,1.329,0,0,1-1.315,1.374c-.929.031-1.861.029-2.79,0a1.337,1.337,0,0,1-1.333-1.4q-.011-.976,0-1.953a1.349,1.349,0,0,1,1.435-1.416C-508.632-389.4-508.193-389.393-507.755-389.393Zm-1.367,1.377v2.01h2.674v-2.01Z" transform="translate(527.785 409.334)" fill="#fff"/><path d="M-458-294.8c-.452,0-.9.011-1.355,0a1.335,1.335,0,0,1-1.349-1.339q-.031-1.035,0-2.072a1.325,1.325,0,0,1,1.351-1.335q1.374-.027,2.75,0a1.3,1.3,0,0,1,1.341,1.338c.022.69.023,1.382,0,2.072a1.319,1.319,0,0,1-1.383,1.339c-.452.01-.9,0-1.355,0Zm-1.322-3.371v1.981h2.677v-1.981Z" transform="translate(484.618 331.382)" fill="#fff"/><path d="M-607.7-294.8c-.452,0-.9.009-1.355,0a1.347,1.347,0,0,1-1.384-1.388c-.013-.664-.015-1.329,0-1.992a1.334,1.334,0,0,1,1.361-1.368q1.375-.026,2.75,0a1.3,1.3,0,0,1,1.33,1.305c.026.7.026,1.408,0,2.111a1.319,1.319,0,0,1-1.39,1.332C-606.819-294.789-607.257-294.8-607.7-294.8Zm-1.362-1.4h2.679v-1.96h-2.679Z" transform="translate(614.521 331.382)" fill="#fff"/><path d="M-557.756-294.8c-.465,0-.93.014-1.395,0a1.29,1.29,0,0,1-1.3-1.254c-.032-.742-.032-1.488,0-2.23a1.277,1.277,0,0,1,1.291-1.257q1.414-.033,2.83,0a1.318,1.318,0,0,1,1.313,1.331c.022.69.022,1.382,0,2.072A1.341,1.341,0,0,1-556.4-294.8c-.451.01-.9,0-1.355,0Zm1.365-3.365h-2.67v1.98h2.67Z" transform="translate(571.096 331.381)" fill="#fff"/><path d="M-408.014-294.8c-.465,0-.93.014-1.395,0a1.29,1.29,0,0,1-1.295-1.256c-.031-.742-.031-1.488,0-2.23a1.277,1.277,0,0,1,1.293-1.255q1.414-.033,2.829,0a1.317,1.317,0,0,1,1.311,1.333c.022.69.022,1.382,0,2.072a1.34,1.34,0,0,1-1.39,1.341c-.451.01-.9,0-1.355,0Zm-1.309-3.369v1.975h2.667v-1.975Z" transform="translate(441.178 331.381)" fill="#fff"/></svg>