<svg xmlns="http://www.w3.org/2000/svg" width="75.839" height="75.839" viewBox="0 0 75.839 75.839"><path d="M1363.77,486q-.293,2.606-.586,5.212a7.767,7.767,0,0,0-.129,1.4c.062.848-.328.953-1.085.988a65.988,65.988,0,0,0-7.656.566,28.3,28.3,0,0,0-13.753,6.478,29.923,29.923,0,0,0-10.3,17.016,29.273,29.273,0,0,0,2.112,18.844,29.994,29.994,0,0,0,12.97,13.964,29.261,29.261,0,0,0,16.507,3.711,29.7,29.7,0,0,0,19.382-8.767,29.258,29.258,0,0,0,8.745-17.692c.251-2.074.2-4.184.29-6.277.012-.291,0-.583,0-.929l7.17-.762.4,1.8v4.592c-.061.533-.123,1.067-.183,1.6a38.137,38.137,0,0,1-31.281,33.515c-1.4.251-2.822.391-4.234.582H1357.7c-.535-.061-1.069-.123-1.6-.183a38.136,38.136,0,0,1-33.512-31.285c-.25-1.4-.39-2.819-.581-4.229V521.7c.061-.533.123-1.067.183-1.6a38.137,38.137,0,0,1,31.281-33.515c1.4-.251,2.822-.391,4.234-.582Z" transform="translate(-1322 -486)" fill="#c4c4c4"/><path d="M1681.359,508.811l-6.507-.05c-.317,0-.634,0-1.029,0V499.1L1660.3,512.641l-5.482-5.482,13.58-13.56h-9.85V486h22.811Z" transform="translate(-1605.52 -486)" fill="#f4f4f4"/><path d="M1559.853,607.2h11.3v7.6h-.81c-5.748,0-11.5-.011-17.245.015-.677,0-.866-.176-.865-.86q.035-12.434,0-24.868c0-.679.177-.88.861-.864,2,.045,4,.041,5.995,0,.635-.013.775.2.773.8-.02,5.724-.012,11.447-.012,17.171Z" transform="translate(-1518.133 -573.083)" fill="#c4c4c4"/></svg>