<svg xmlns="http://www.w3.org/2000/svg" width="75" height="75" viewBox="0 0 75 75"><path d="M666.906,471.467c-1.422-.192-2.857-.317-4.264-.587a37.1,37.1,0,0,1-26.628-19.354,35.028,35.028,0,0,1-4.383-18.411A36.771,36.771,0,0,1,645.5,404.974a36.188,36.188,0,0,1,19.838-8.232c2.343-.239,4.715-.19,7.145-.275l-.764,7.579c-10.622-.543-19.554,2.965-26.324,11.242a28.5,28.5,0,0,0-6.555,21.109,30.027,30.027,0,0,0,29.9,27.568,29.187,29.187,0,0,0,22.267-10.021c5.957-6.584,8.252-14.44,7.644-23.3l7.554-.766.4,1.779V436.2c-.06.527-.122,1.054-.181,1.581a37.694,37.694,0,0,1-30.939,33.113c-1.386.248-2.791.386-4.187.575Z" transform="translate(-631.608 -396.467)" fill="#585858"/><path d="M990.6,402.094l-13.486,13.571h9.636V423.2H964.176V400.609h7.477v9.764l13.621-13.633c1.618,1.619,3.161,3.167,4.71,4.708a7.46,7.46,0,0,0,.613.5Z" transform="translate(-915.597 -396.7)" fill="#fedd32"/><path d="M880.212,525.493h-.784c-5.737,0-11.474-.013-17.211.017-.732,0-.883-.226-.881-.917q.036-12.373,0-24.746c0-.645.123-.9.84-.882,1.993.052,3.989.04,5.983,0,.608-.011.793.159.791.78-.023,5.811-.013,11.622-.013,17.433v.688h11.273Z" transform="translate(-827.717 -484.017)" fill="#585858"/></svg>