<svg xmlns="http://www.w3.org/2000/svg" width="20" height="20.002" viewBox="0 0 20 20.002"><g transform="translate(1106.657 75.799)"><path d="M-1106.657-65.464v-.724c.012-.076.026-.152.036-.229.063-.477.093-.962.192-1.432a10,10,0,0,1,12.234-7.643,10,10,0,0,1,7.347,11.639,9.977,9.977,0,0,1-8.09,7.887c-.453.077-.912.113-1.369.167h-.682a1.939,1.939,0,0,0-.208-.033,9.138,9.138,0,0,1-3.04-.654,9.853,9.853,0,0,1-6.246-7.571C-1106.575-64.518-1106.6-64.995-1106.657-65.464Zm9.994-1.621c-.076-.084-.13-.15-.19-.21q-1.166-1.167-2.333-2.334a.9.9,0,0,0-.868-.287.865.865,0,0,0-.685.629.885.885,0,0,0,.256.933q1.188,1.19,2.377,2.379c.054.054.1.111.185.2a2.289,2.289,0,0,0-.194.155q-1.168,1.165-2.334,2.332a.9.9,0,0,0-.26.971.9.9,0,0,0,1.532.326c.792-.783,1.577-1.574,2.365-2.362.053-.053.109-.1.171-.158l1.567,1.569c.336.336.668.677,1.01,1.007a.864.864,0,0,0,.9.222.867.867,0,0,0,.625-.689.924.924,0,0,0-.306-.882q-1.177-1.171-2.349-2.347c-.053-.054-.1-.11-.184-.2a2.357,2.357,0,0,0,.195-.157q1.168-1.165,2.335-2.331a.929.929,0,0,0,.311-.881.865.865,0,0,0-.621-.692.88.88,0,0,0-.935.247q-1.191,1.187-2.378,2.378C-1096.524-67.214-1096.58-67.163-1096.663-67.085Z" transform="translate(0 0)" fill="#585858"/></g></svg>