<svg xmlns="http://www.w3.org/2000/svg" xmlns:xlink="http://www.w3.org/1999/xlink" width="70" height="70" viewBox="0 0 70 70"><defs><clipPath id="a"><rect width="70" height="70" rx="10" transform="translate(896 765)" fill="#fff"/></clipPath></defs><g transform="translate(-896 -765)" clip-path="url(#a)"><g transform="translate(944.5 770.602)"><path d="M-1106.657-67.531v-.579c.01-.061.021-.122.029-.183.05-.382.075-.769.153-1.145a8,8,0,0,1,9.788-6.114,8,8,0,0,1,5.878,9.312,7.982,7.982,0,0,1-6.472,6.31c-.362.061-.73.09-1.095.134h-.545a1.546,1.546,0,0,0-.166-.026,7.311,7.311,0,0,1-2.432-.523,7.882,7.882,0,0,1-5-6.057C-1106.591-66.774-1106.612-67.155-1106.657-67.531Zm8-1.3c-.061-.067-.1-.12-.152-.168q-.932-.934-1.866-1.867a.723.723,0,0,0-.694-.23.692.692,0,0,0-.548.5.707.707,0,0,0,.2.746l1.9,1.9c.043.043.083.089.148.159a1.815,1.815,0,0,0-.155.124q-.935.932-1.868,1.865a.721.721,0,0,0-.208.777.723.723,0,0,0,1.226.261c.634-.627,1.261-1.259,1.892-1.889.042-.042.087-.081.136-.127l1.253,1.255c.269.269.535.541.808.805a.691.691,0,0,0,.722.178.693.693,0,0,0,.5-.551.739.739,0,0,0-.245-.706q-.942-.937-1.879-1.878c-.043-.043-.083-.088-.147-.157a1.922,1.922,0,0,0,.156-.125q.934-.932,1.868-1.865a.743.743,0,0,0,.248-.705.692.692,0,0,0-.5-.553.7.7,0,0,0-.748.2q-.953.95-1.9,1.9C-1098.55-68.931-1098.6-68.89-1098.661-68.828Z" transform="translate(1106.657 75.799)" fill="#585858"/></g><rect width="70" height="70" rx="10" transform="translate(896 765)" fill="#f4f4f4"/><g transform="translate(487.603 -506.573)"><g transform="translate(428.44 1293.176)"><path d="M431.363,1293.176h23.5a.5.5,0,0,0,.1.045,3.3,3.3,0,0,1,2.818,3.346q.006,10.369-.006,20.738a3.653,3.653,0,0,1-.188,1.149,3.3,3.3,0,0,1-3.266,2.225h-17.3c-1.747,0-3.495.011-5.242,0a3.168,3.168,0,0,1-2.863-1.641,7.544,7.544,0,0,1-.472-1.276V1296.1a.74.74,0,0,0,.049-.132,3.151,3.151,0,0,1,1.624-2.333A8.24,8.24,0,0,1,431.363,1293.176Zm11.979,24.432q4.97,0,9.94,0c.382,0,.8.013,1-.4.194-.394-.043-.719-.256-1.025q-1.671-2.395-3.35-4.784a1.306,1.306,0,0,0-2.2-.19c-.406.4-.786.837-1.218,1.211a2.075,2.075,0,0,1-.856.469,1.379,1.379,0,0,1-1.426-.694q-2.63-3.45-5.27-6.892a2.771,2.771,0,0,0-.319-.367.845.845,0,0,0-.89-.24,1.312,1.312,0,0,0-.7.754q-2.67,5.285-5.336,10.571a2.562,2.562,0,0,0-.2.5.783.783,0,0,0,.6,1.026,2.716,2.716,0,0,0,.652.057Q438.429,1317.611,443.342,1317.609Zm7.276-16.291a3.206,3.206,0,1,0-3.2,3.2A3.218,3.218,0,0,0,450.618,1301.317Z" transform="translate(-428.44 -1293.176)" fill="#c4c4c4"/></g></g></g></svg>