<svg xmlns="http://www.w3.org/2000/svg" width="35" height="35" viewBox="0 0 35 35"><g transform="translate(-136.15 0)"><path d="M2722.873,5000.263a17.5,17.5,0,1,0,17.5,17.5A17.52,17.52,0,0,0,2722.873,5000.263Zm4.854,10.381a.264.264,0,0,1-.264.264h-2.1a.935.935,0,0,0-.935.935v2.2h2.993a.264.264,0,0,1,.263.287l-.262,3.1a.264.264,0,0,1-.263.243h-2.73v10.308a.264.264,0,0,1-.264.264h-3.766a.264.264,0,0,1-.264-.264v-10.308h-1.883a.264.264,0,0,1-.264-.264v-3.106a.265.265,0,0,1,.264-.265h1.883v-2.994a3.779,3.779,0,0,1,3.778-3.779h3.556a.265.265,0,0,1,.264.265Z" transform="translate(-2569.223 -5000.264)" fill="#fff"/></g></svg>