<svg xmlns="http://www.w3.org/2000/svg" width="15" height="15" viewBox="0 0 15 15"><g transform="translate(390.918 1014.615)"><g transform="translate(-390.918 -1014.615)"><path d="M-390.918-1006.674v-.879c.009-.052.019-.1.027-.156.047-.323.074-.65.143-.968a7.285,7.285,0,0,1,2.784-4.388,7.277,7.277,0,0,1,6.122-1.374,7.242,7.242,0,0,1,4.368,2.764,7.292,7.292,0,0,1,1.517,5.311,7.245,7.245,0,0,1-1.83,4.192,7.367,7.367,0,0,1-4.338,2.44c-.282.05-.568.078-.853.117h-.879a.781.781,0,0,0-.113-.024,7.143,7.143,0,0,1-3.273-1.032,7.4,7.4,0,0,1-3.559-5.153C-390.854-1006.1-390.88-1006.391-390.918-1006.674Zm8.515-.471c-.072.077-.107.116-.145.153l-2.474,2.475a1.621,1.621,0,0,0-.138.151.616.616,0,0,0,.189.92.634.634,0,0,0,.806-.16l2.983-2.981a.649.649,0,0,0,0-1.052l-2.962-2.96a1.572,1.572,0,0,0-.141-.128.618.618,0,0,0-.978.316.643.643,0,0,0,.21.673q1.249,1.246,2.5,2.493A.944.944,0,0,0-382.4-1007.145Z" transform="translate(390.918 1014.615)" fill="#585858"/></g></g></svg>