<svg id="C" xmlns="http://www.w3.org/2000/svg" width="94.72" height="118.359" viewBox="0 0 94.72 118.359">
  <path id="Path_1488" data-name="Path 1488" d="M889.283-2361.288a22.548,22.548,0,0,1-2.61-.867,9.74,9.74,0,0,1-5.9-8.691c-.022-.307-.016-.616-.016-.924q0-42.8,0-85.6c0-5.052,2.877-8.948,7.489-10.093a12.875,12.875,0,0,1,2.97-.329c4.159-.035,8.319-.029,12.478,0a1.451,1.451,0,0,0,1.534-.845,5.7,5.7,0,0,1,5.182-3.1c1.916-.045,3.833-.009,5.892-.009,0-.79-.018-1.472,0-2.153a5.811,5.811,0,0,1,5.684-5.7q6.122-.092,12.247,0a5.805,5.805,0,0,1,5.684,5.7c.021.651,0,1.3,0,2.093.425.022.79.055,1.156.057,1.579.007,3.159-.028,4.737.012a5.651,5.651,0,0,1,5.123,3,1.612,1.612,0,0,0,1.708.948c4.082-.036,8.165-.02,12.247-.015,6.384.007,10.576,4.181,10.577,10.551q.007,42.743,0,85.485c0,5.423-2.909,9.057-8.219,10.323a1.385,1.385,0,0,0-.3.158Zm74.357-11.874v-1.57q0-39.806,0-79.612c0-.27-.019-.541,0-.809.046-.581-.175-.829-.79-.826-3.505.019-7.011-.007-10.516.036a1.177,1.177,0,0,0-.869.618c-1.887,5.014-5.08,7.261-10.429,7.264q-12.944.006-25.887,0c-.462,0-.925-.01-1.385-.045a9.714,9.714,0,0,1-8.86-6.948,1.1,1.1,0,0,0-1.285-.931c-3.235.035-6.473.06-9.707-.01-1.074-.023-1.342.3-1.341,1.353q.042,40.095.022,80.19v1.292ZM951.85-2459.92h1.328q4.854,0,9.709,0c3.166,0,4.7,1.519,4.7,4.658q0,40.735,0,81.469c0,3.076-1.551,4.626-4.612,4.626q-34.847,0-69.694,0-4.625,0-4.632-4.6,0-40.793,0-81.585c0-3,1.559-4.556,4.561-4.564,3.313-.009,6.626,0,9.94,0,.406,0,.813-.039,1.233-.061v-3.882h-1.2q-5.952,0-11.9,0c-4.161.007-6.573,2.437-6.573,6.631q0,42.7,0,85.4c0,4.188,2.415,6.607,6.589,6.607q36.812,0,73.624,0c4.188,0,6.616-2.409,6.617-6.58q.005-42.757,0-85.514c0-4.1-2.451-6.535-6.548-6.542q-5.952-.011-11.9,0c-.4,0-.809.036-1.23.057Zm-23.66-7.887q-8.607,0-17.214,0c-1.91,0-2.554.653-2.561,2.573-.008,2.349-.02,4.7,0,7.046.036,3.667,2.4,6.132,6.054,6.149q13.632.067,27.265,0a5.793,5.793,0,0,0,6.083-6.122c.027-2.348.012-4.7,0-7.046-.007-1.975-.644-2.6-2.65-2.6Q936.681-2467.812,928.19-2467.807Zm7.8-4c0-.658.023-1.263-.005-1.866a1.9,1.9,0,0,0-1.948-1.994q-5.934-.055-11.869,0a1.877,1.877,0,0,0-1.914,1.905c-.038.638-.007,1.28-.007,1.954Z" transform="translate(-880.759 2479.648)" fill="#585858"/>
  <path id="Path_1489" data-name="Path 1489" d="M1009.308-1802.778c-3.808,0-7.616.007-11.424,0-1.454,0-2.329-.771-2.315-1.981s.891-1.949,2.361-1.95q11.423-.011,22.847-.01c.914,0,1.786.195,2.1,1.082a2.337,2.337,0,0,1-.1,1.907,2.827,2.827,0,0,1-1.934.914C1017-1802.735,1013.154-1802.778,1009.308-1802.778Z" transform="translate(-979.752 1899.429)" fill="#585858"/>
  <path id="Path_1490" data-name="Path 1490" d="M1009.389-2117.8c-3.846,0-7.691.016-11.536-.006-1.585-.009-2.495-1.03-2.182-2.385a1.958,1.958,0,0,1,2.138-1.547c1.384-.021,2.769-.007,4.153-.007h18.228c.308,0,.617-.015.923.008a2.023,2.023,0,0,1,2.084,2.016,1.953,1.953,0,0,1-2.156,1.911C1017.157-2117.784,1013.273-2117.8,1009.389-2117.8Z" transform="translate(-979.787 2171.055)" fill="#585858"/>
  <path id="Path_1491" data-name="Path 1491" d="M1009.453-1960.3q-5.711,0-11.423,0c-1.571,0-2.45-.722-2.445-1.963s.9-1.973,2.461-1.974q11.365-.01,22.73,0c1.881,0,2.949,1.485,2.145,2.924a2.088,2.088,0,0,1-2.045,1.018C1017.068-1960.309,1013.261-1960.3,1009.453-1960.3Z" transform="translate(-979.766 2035.25)" fill="#585858"/>
  <path id="Path_1492" data-name="Path 1492" d="M1149.578-1863.852c2.849,0,5.7-.007,8.547,0,1.444,0,2.361.783,2.359,1.963s-.921,1.966-2.362,1.968q-8.49.012-16.979,0c-1.471,0-2.332-.75-2.331-1.971s.851-1.954,2.333-1.96C1143.957-1863.859,1146.768-1863.852,1149.578-1863.852Z" transform="translate(-1103.262 1948.69)" fill="#585858"/>
  <path id="Path_1493" data-name="Path 1493" d="M1149.668-2017.495c-2.849,0-5.7.008-8.547,0-1.477-.006-2.321-.747-2.309-1.98.012-1.214.874-1.949,2.355-1.951q8.49-.012,16.979,0c1.431,0,2.349.812,2.333,1.994s-.918,1.932-2.38,1.937C1155.289-2017.488,1152.478-2017.495,1149.668-2017.495Z" transform="translate(-1103.26 2084.562)" fill="#585858"/>
  <path id="Path_1494" data-name="Path 1494" d="M1149.695-2175.044c-2.849,0-5.7.009-8.547,0-1.5-.007-2.329-.722-2.327-1.955,0-1.216.864-1.975,2.336-1.978q8.489-.018,16.978,0c1.443,0,2.355.8,2.353,1.984s-.9,1.943-2.362,1.949C1155.315-2175.036,1152.505-2175.044,1149.695-2175.044Z" transform="translate(-1103.269 2220.41)" fill="#585858"/>
  <path id="Path_1495" data-name="Path 1495" d="M1345.094-2171.5c2.009-2.013,3.854-3.862,5.7-5.709.3-.3.584-.618.91-.886a1.933,1.933,0,0,1,2.712.077,1.936,1.936,0,0,1,.017,2.71c-.966,1.045-2,2.031-3,3.039-1.551,1.553-3.093,3.115-4.661,4.651a2.018,2.018,0,0,1-3.221,0q-1.781-1.731-3.511-3.513a1.969,1.969,0,0,1-.175-2.964,1.986,1.986,0,0,1,2.97.2C1343.571-2173.169,1344.258-2172.388,1345.094-2171.5Z" transform="translate(-1276.099 2220.084)" fill="#585858"/>
  <path id="Path_1496" data-name="Path 1496" d="M1345.028-1856.537c2.367-2.392,4.443-4.5,6.532-6.6a1.868,1.868,0,0,1,2.418-.378,1.8,1.8,0,0,1,.9,2.165,2.747,2.747,0,0,1-.712,1.146q-3.685,3.736-7.416,7.427a1.98,1.98,0,0,1-3.209-.01q-1.772-1.735-3.505-3.508a1.965,1.965,0,0,1-.2-2.958,1.984,1.984,0,0,1,2.964.163c.393.368.784.741,1.139,1.144S1344.6-1857.1,1345.028-1856.537Z" transform="translate(-1276.088 1948.641)" fill="#585858"/>
  <path id="Path_1497" data-name="Path 1497" d="M1345.106-2014.1c2.268-2.289,4.342-4.393,6.429-6.484a1.889,1.889,0,0,1,2.414-.42,1.8,1.8,0,0,1,.943,2.146,2.4,2.4,0,0,1-.615,1.071q-3.765,3.816-7.578,7.585a1.962,1.962,0,0,1-3.125-.026q-1.817-1.77-3.585-3.589a1.951,1.951,0,0,1-.18-2.874,1.948,1.948,0,0,1,2.959.1C1343.54-2015.835,1344.243-2015.02,1345.106-2014.1Z" transform="translate(-1276.095 2084.415)" fill="#585858"/>
  <path id="Path_1498" data-name="Path 1498" d="M1003.359-2017.517c-1.845,0-3.691.012-5.536,0-1.38-.012-2.228-.763-2.24-1.936a1.975,1.975,0,0,1,2.2-1.991q5.651-.028,11.3,0a2.04,2.04,0,0,1,2.263,1.949c.015,1.176-.907,1.97-2.336,1.98C1007.127-2017.507,1005.243-2017.517,1003.359-2017.517Z" transform="translate(-979.764 2084.584)" fill="#585858"/>
  <path id="Path_1499" data-name="Path 1499" d="M1003.512-1863.859c1.845,0,3.691-.01,5.536,0,1.412.01,2.341.837,2.3,2.012a2.043,2.043,0,0,1-2.291,1.917q-5.594.019-11.187,0c-1.434,0-2.31-.8-2.281-2.02.028-1.17.874-1.9,2.268-1.909C999.745-1863.869,1001.628-1863.859,1003.512-1863.859Z" transform="translate(-979.772 1948.698)" fill="#585858"/>
  <path id="Path_1500" data-name="Path 1500" d="M1003.433-2175.069c-1.884,0-3.767.015-5.65-.005a1.96,1.96,0,0,1-2.2-1.97,2,2,0,0,1,2.239-1.958q5.65-.029,11.3,0a2.025,2.025,0,0,1,2.22,1.995,2.01,2.01,0,0,1-2.258,1.932C1007.2-2175.055,1005.317-2175.068,1003.433-2175.069Z" transform="translate(-979.762 2220.434)" fill="#585858"/>
  <path id="Path_1501" data-name="Path 1501" d="M1162.8-2332.534c-2.5,0-5,.013-7.5-.005-1.465-.01-2.353-.779-2.344-1.967s.911-1.965,2.367-1.969q7.5-.022,15.007,0c1.452,0,2.351.806,2.344,1.991s-.891,1.935-2.367,1.944C1167.8-2332.522,1165.3-2332.534,1162.8-2332.534Z" transform="translate(-1115.454 2356.209)" fill="#585858"/>
</svg>
