<svg xmlns="http://www.w3.org/2000/svg" width="34" height="34" viewBox="0 0 34 34"><path d="M-608.754-505.08h-29.086c-.083-.024-.166-.049-.25-.071a2.823,2.823,0,0,1-2.076-1.922c-.045-.132-.087-.265-.131-.4v-27.493a.343.343,0,0,0,.049-.083,2.81,2.81,0,0,1,2.92-2.328c.83,0,1.66,0,2.489,0h.748c.189-1.065.78-1.7,1.642-1.686a2.314,2.314,0,0,1,1.055.306,1.638,1.638,0,0,1,.75,1.363h14.683c.225-1.1.813-1.675,1.7-1.687.911-.013,1.479.526,1.764,1.674a.2.2,0,0,0,.062.021c1.018,0,2.035,0,3.053.011a4.181,4.181,0,0,1,.825.06A2.826,2.826,0,0,1-606.3-534.4q0,12.978,0,25.956c0,.21,0,.421,0,.631a2.852,2.852,0,0,1-1.914,2.583C-608.391-505.173-608.574-505.13-608.754-505.08Zm-30.411-23.779v.364q0,10.192,0,20.384a1.724,1.724,0,0,0,1.888,1.9h27.952a1.725,1.725,0,0,0,1.9-1.891q0-10.192,0-20.384v-.372Zm.005-1.18h31.732c0-.148,0-.269,0-.39,0-1.416.017-2.833-.014-4.248a1.562,1.562,0,0,0-1.342-1.518c-.862-.074-1.735-.017-2.608-.017.595,1.449.644,1.65.5,2.343a3.345,3.345,0,0,1-1.279,2.032,3.4,3.4,0,0,1-4.159-.037,3.386,3.386,0,0,1-1.192-1.828,3.03,3.03,0,0,1,.5-2.516h-12.541a3.12,3.12,0,0,1,.549,2.352,3.267,3.267,0,0,1-1.257,2.043,3.515,3.515,0,0,1-4.177,0,3.256,3.256,0,0,1-1.19-1.751,3.091,3.091,0,0,1,.5-2.657c-.841,0-1.622-.017-2.4,0a1.625,1.625,0,0,0-1.6,1.557C-639.184-533.139-639.16-531.6-639.16-530.039Zm8.495-5.646c0,.2,0,.373,0,.545a1.686,1.686,0,0,1-1.69,1.719,1.682,1.682,0,0,1-1.7-1.7c0-.179,0-.359,0-.592a1.96,1.96,0,0,0,.118,2.842,2.35,2.35,0,0,0,3.308-.158A1.9,1.9,0,0,0-630.665-535.685Zm18.13-.018c0,.247,0,.433,0,.619a1.68,1.68,0,0,1-1.677,1.661,1.684,1.684,0,0,1-1.713-1.66c0-.192,0-.385,0-.617a1.883,1.883,0,0,0,.05,2.707,2.276,2.276,0,0,0,3.267.029A1.9,1.9,0,0,0-612.535-535.7Zm-2.261-.553c0,.364-.006.728,0,1.092a.557.557,0,0,0,.557.607.548.548,0,0,0,.569-.593q.012-1.091,0-2.183a.571.571,0,0,0-.556-.614.58.58,0,0,0-.572.633C-614.8-536.961-614.8-536.608-614.8-536.255Zm-18.131,0c0,.364-.005.728,0,1.092a.553.553,0,0,0,.553.609.549.549,0,0,0,.573-.591q.013-1.108,0-2.216a.566.566,0,0,0-.554-.583.57.57,0,0,0-.571.6C-632.934-536.985-632.927-536.621-632.927-536.258Z" transform="translate(640.296 539.08)" fill="#585858"/><path d="M-508.183-344.433c.384,0,.768-.008,1.152,0a1.128,1.128,0,0,1,1.137,1.143q.015.881,0,1.761a1.092,1.092,0,0,1-1.046,1.123c-.845.035-1.694.036-2.539,0a1.09,1.09,0,0,1-1.035-1.131c-.009-.587-.011-1.174,0-1.762a1.127,1.127,0,0,1,1.146-1.133C-508.974-344.44-508.579-344.433-508.183-344.433Zm1.117,1.18h-2.279v1.688h2.279Z" transform="translate(525.205 366.474)" fill="#585858"/><path d="M-458.374-344.432c.384,0,.768-.007,1.152,0a1.1,1.1,0,0,1,1.138,1.066c.028.631.027,1.265,0,1.9a1.064,1.064,0,0,1-1.028,1.064c-.845.036-1.694.036-2.539,0a1.1,1.1,0,0,1-1.051-1.122q-.027-.88,0-1.761a1.142,1.142,0,0,1,1.177-1.145C-459.142-344.438-458.758-344.432-458.374-344.432Zm-1.155,1.175v1.688h2.28v-1.688Z" transform="translate(481.032 366.473)" fill="#585858"/><path d="M-408.394-344.432c.373,0,.746-.005,1.118,0a1.142,1.142,0,0,1,1.183,1.139c.019.587.018,1.175,0,1.761a1.118,1.118,0,0,1-1.113,1.138c-.8.028-1.6.028-2.4,0a1.1,1.1,0,0,1-1.108-1.136q-.028-.88,0-1.761a1.122,1.122,0,0,1,1.173-1.141C-409.162-344.438-408.778-344.432-408.394-344.432Zm1.127,2.869v-1.689h-2.276v1.689Z" transform="translate(436.616 366.472)" fill="#585858"/><path d="M-608.112-340.391c-.361,0-.723.009-1.084,0a1.166,1.166,0,0,1-1.216-1.251q-.008-.779,0-1.558a1.153,1.153,0,0,1,1.223-1.238q1.1-.008,2.2,0a1.13,1.13,0,0,1,1.207,1.177q.023.846,0,1.694a1.136,1.136,0,0,1-1.18,1.176C-607.343-340.38-607.728-340.391-608.112-340.391Zm1.149-1.182v-1.681h-2.265v1.681Z" transform="translate(613.884 366.482)" fill="#585858"/><path d="M-558.16-340.391c-.361,0-.723.01-1.084,0a1.147,1.147,0,0,1-1.208-1.218q-.016-.813,0-1.626a1.135,1.135,0,0,1,1.216-1.2q1.1-.008,2.2,0a1.153,1.153,0,0,1,1.215,1.212q.013.813,0,1.626a1.157,1.157,0,0,1-1.189,1.208C-557.391-340.38-557.776-340.392-558.16-340.391Zm1.171-2.865h-2.279v1.671h2.279Z" transform="translate(569.492 366.482)" fill="#585858"/><path d="M-608.1-385.335c-.361,0-.723.006-1.084,0a1.173,1.173,0,0,1-1.236-1.235q-.01-.8,0-1.592a1.163,1.163,0,0,1,1.236-1.23q1.085-.007,2.169,0a1.144,1.144,0,0,1,1.228,1.2q.02.83,0,1.66a1.156,1.156,0,0,1-1.228,1.2C-607.374-385.329-607.736-385.335-608.1-385.335Zm-1.141-2.885v1.7h2.267v-1.7Z" transform="translate(613.89 406.345)" fill="#585858"/><path d="M-558.136-389.391c.373,0,.746-.006,1.118,0a1.149,1.149,0,0,1,1.182,1.144q.028.88,0,1.762a1.14,1.14,0,0,1-1.147,1.146q-1.168.032-2.338,0a1.126,1.126,0,0,1-1.14-1.145q-.027-.88,0-1.762a1.132,1.132,0,0,1,1.173-1.145C-558.9-389.4-558.52-389.392-558.136-389.391Zm-1.156,2.871h2.284v-1.694h-2.284Z" transform="translate(569.506 406.341)" fill="#585858"/><path d="M-458.335-389.389c.362,0,.723,0,1.084,0a1.137,1.137,0,0,1,1.2,1.159q.027.863,0,1.728a1.134,1.134,0,0,1-1.155,1.167q-1.152.028-2.3,0a1.153,1.153,0,0,1-1.17-1.194q-.016-.83,0-1.66a1.161,1.161,0,0,1,1.232-1.2C-459.081-389.392-458.708-389.389-458.335-389.389Zm-1.177,2.88h2.278v-1.7h-2.278Z" transform="translate(481.012 406.338)" fill="#585858"/><path d="M-408.409-389.392c.384,0,.768-.007,1.152,0a1.143,1.143,0,0,1,1.162,1.128c.022.6.022,1.2,0,1.8a1.132,1.132,0,0,1-1.13,1.126q-1.185.036-2.372,0a1.118,1.118,0,0,1-1.121-1.128c-.02-.6-.021-1.2,0-1.8a1.13,1.13,0,0,1,1.19-1.127C-409.155-389.4-408.782-389.392-408.409-389.392Zm-1.133,1.174v1.7h2.269v-1.7Z" transform="translate(436.616 406.342)" fill="#585858"/><path d="M-558.159-430.326c-.373,0-.746.006-1.118,0a1.135,1.135,0,0,1-1.186-1.134c-.02-.6-.021-1.2,0-1.8a1.127,1.127,0,0,1,1.159-1.127q1.152-.022,2.3,0a1.148,1.148,0,0,1,1.162,1.166c.016.576.016,1.152,0,1.728a1.156,1.156,0,0,1-1.2,1.161C-557.413-430.321-557.786-430.326-558.159-430.326Zm1.138-1.167V-433.2h-2.259v1.709Z" transform="translate(569.509 446.247)" fill="#585858"/><path d="M-408.45-430.332c-.373,0-.746.009-1.118,0a1.124,1.124,0,0,1-1.144-1.1c-.024-.609-.023-1.22,0-1.829a1.119,1.119,0,0,1,1.129-1.12c.779-.02,1.559-.018,2.338,0a1.142,1.142,0,0,1,1.155,1.137c.02.6.022,1.2,0,1.8a1.146,1.146,0,0,1-1.17,1.121C-407.659-430.325-408.055-430.332-408.45-430.332Zm1.19-2.883h-2.28v1.7h2.28Z" transform="translate(436.614 446.253)" fill="#585858"/><path d="M-508.215-295.516c-.384,0-.768.009-1.152,0a1.128,1.128,0,0,1-1.143-1.171q-.011-.847,0-1.694a1.12,1.12,0,0,1,1.143-1.17q1.168-.024,2.337,0a1.122,1.122,0,0,1,1.143,1.17q.012.847,0,1.694a1.133,1.133,0,0,1-1.177,1.173C-507.447-295.508-507.831-295.515-508.215-295.516Zm-1.119-2.868v1.689h2.266v-1.689Z" transform="translate(525.198 326.612)" fill="#585858"/><path d="M-608.129-430.32c-.373,0-.746.006-1.118,0a1.158,1.158,0,0,1-1.188-1.176c-.013-.564-.013-1.13,0-1.694a1.154,1.154,0,0,1,1.179-1.185q1.135-.021,2.271,0a1.134,1.134,0,0,1,1.178,1.143c.02.587.02,1.175,0,1.762a1.139,1.139,0,0,1-1.2,1.152C-607.384-430.316-607.757-430.32-608.129-430.32Zm1.138-1.174v-1.71h-2.269v1.71Z" transform="translate(613.91 446.241)" fill="#585858"/><path d="M-508.193-430.342c-.373,0-.746,0-1.118,0a1.15,1.15,0,0,1-1.2-1.193c-.007-.565-.008-1.129,0-1.694a1.133,1.133,0,0,1,1.12-1.166c.79-.023,1.582-.021,2.372,0a1.134,1.134,0,0,1,1.13,1.156c.01.587.011,1.175,0,1.762a1.137,1.137,0,0,1-1.118,1.133c-.395.016-.791,0-1.186,0Zm-1.14-2.888v1.709h2.269v-1.709Z" transform="translate(525.198 446.263)" fill="#585858"/><path d="M-458.386-430.32c-.373,0-.746.006-1.118,0a1.158,1.158,0,0,1-1.186-1.178q-.02-.847,0-1.694a1.154,1.154,0,0,1,1.18-1.184q1.135-.021,2.271,0a1.134,1.134,0,0,1,1.177,1.145c.02.587.019,1.175,0,1.762a1.139,1.139,0,0,1-1.2,1.151C-457.64-430.316-458.013-430.32-458.386-430.32Zm1.142-1.176v-1.7h-2.274v1.7Z" transform="translate(481.018 446.241)" fill="#585858"/><path d="M-508.168-389.393c.373,0,.746-.006,1.118,0a1.141,1.141,0,0,1,1.166,1.154c.01.576.009,1.152,0,1.728A1.13,1.13,0,0,1-507-385.342c-.79.026-1.582.024-2.372,0a1.136,1.136,0,0,1-1.133-1.188q-.01-.83,0-1.66a1.147,1.147,0,0,1,1.22-1.2C-508.914-389.4-508.541-389.393-508.168-389.393Zm-1.162,1.171v1.709h2.273v-1.709Z" transform="translate(525.194 406.343)" fill="#585858"/><path d="M-458.405-295.513c-.384,0-.768.009-1.152,0a1.135,1.135,0,0,1-1.147-1.138q-.026-.88,0-1.761a1.126,1.126,0,0,1,1.149-1.135q1.168-.023,2.337,0a1.109,1.109,0,0,1,1.14,1.137c.019.586.019,1.175,0,1.761a1.121,1.121,0,0,1-1.176,1.138c-.384.009-.768,0-1.152,0Zm-1.124-2.865v1.684h2.276v-1.684Z" transform="translate(481.033 326.609)" fill="#585858"/><path d="M-608.108-295.512c-.384,0-.768.007-1.152,0a1.145,1.145,0,0,1-1.176-1.18c-.011-.564-.013-1.129,0-1.693a1.133,1.133,0,0,1,1.157-1.163q1.168-.022,2.337,0a1.1,1.1,0,0,1,1.131,1.11c.022.6.022,1.2,0,1.795a1.121,1.121,0,0,1-1.181,1.132C-607.363-295.5-607.736-295.511-608.108-295.512Zm-1.158-1.187h2.277v-1.666h-2.277Z" transform="translate(613.91 326.609)" fill="#585858"/><path d="M-558.164-295.513c-.4,0-.791.012-1.185,0a1.1,1.1,0,0,1-1.1-1.066c-.027-.631-.027-1.265,0-1.9a1.086,1.086,0,0,1,1.1-1.068q1.2-.028,2.405,0a1.12,1.12,0,0,1,1.116,1.131q.028.88,0,1.761a1.14,1.14,0,0,1-1.179,1.141c-.384.009-.768,0-1.152,0Zm1.16-2.86h-2.269v1.683H-557Z" transform="translate(569.502 326.608)" fill="#585858"/><path d="M-408.421-295.513c-.4,0-.791.012-1.186,0a1.1,1.1,0,0,1-1.1-1.068c-.027-.631-.027-1.265,0-1.9a1.085,1.085,0,0,1,1.1-1.067q1.2-.028,2.4,0a1.12,1.12,0,0,1,1.115,1.133c.018.586.019,1.175,0,1.761a1.139,1.139,0,0,1-1.181,1.139c-.384.009-.768,0-1.152,0Zm-1.112-2.864v1.679h2.267v-1.679Z" transform="translate(436.61 326.608)" fill="#585858"/></svg>