<svg xmlns="http://www.w3.org/2000/svg" width="116.586" height="116.379" viewBox="0 0 116.586 116.379">
  <g id="A" transform="translate(0 0)">
    <path id="Path_1478" data-name="Path 1478" d="M412.625-1027.3c.128-3.292,1.7-5.133,5.129-5.125a16.349,16.349,0,0,1-.024-9.574,1.047,1.047,0,0,1,.028-.112,19.653,19.653,0,0,0,1.963-7.3c.09-2.342,1.7-4.175,3.8-5.34a1.976,1.976,0,0,0,1.076-1.567,9.777,9.777,0,0,1,11.608-7.955,1.637,1.637,0,0,0,1.264-.411c4.9-5.142,11.2-6.092,17.614-2.559.239-.169.513-.359.782-.554a8.093,8.093,0,0,1,11.022,1.385,2.221,2.221,0,0,0,1.4.718c8.046.518,13.724,5.13,15.919,12.934a1.674,1.674,0,0,0,.916.958,8.064,8.064,0,0,1,5.3,9.949,1.557,1.557,0,0,0-.006.993,12.516,12.516,0,0,1,1.313,8.46c3.2.17,4.521,2.067,4.627,5.1,1.189,0,2.261-.011,3.333,0,2.686.034,4,1.163,4.518,3.807q4.182,21.518,8.378,43.034c.893,4.572-1.674,7.738-6.341,7.741q-19.586.011-39.171-.011a2.594,2.594,0,0,0-2.1.844c-1.87,1.916-4.39,2.469-6.919,2.839a23.533,23.533,0,0,1-10.066-.632,9.287,9.287,0,0,1-4.525-2.642,2.153,2.153,0,0,0-1.447-.38c-13.019-.02-26.037-.006-39.056-.035a9.257,9.257,0,0,1-3.055-.451,5.841,5.841,0,0,1-3.6-6.836q4.251-21.916,8.539-43.825a3.928,3.928,0,0,1,4.119-3.446C410.147-1027.323,411.336-1027.3,412.625-1027.3Zm39.889,41.77v-1.566q0-11.322.006-22.644c0-1.55.781-2.455,2.008-2.431,1.193.023,1.9.892,1.942,2.387.008.308,0,.616,0,.924q0,10.918,0,21.835v1.49a68.183,68.183,0,0,1,42.835-.023c-.028-.336-.031-.486-.055-.632q-1.472-8.88-2.948-17.758-1.959-11.782-3.942-23.559c-.055-.324-.4-.817-.657-.845-.571-.064-1.376-.091-1.711.243a5.157,5.157,0,0,0-1.105,2.09,17.106,17.106,0,0,1-4.142,7.109c-.672.677-1.4,1.3-2.07,1.911a30.124,30.124,0,0,1,1.506,3.8,8.2,8.2,0,0,1,.21,3.392,5.568,5.568,0,0,1-4.169,4.5,5.67,5.67,0,0,1-6.03-1.632,12.926,12.926,0,0,0-5.291-3.359,19.706,19.706,0,0,1-4.177-1.917c-1.23-.8-2.721-1.767-3.218-3.011-.915-2.294-2.553-2.835-4.62-2.982a1.948,1.948,0,0,0-1.219.257c-6.307,4.759-14.1,3.452-18.5-3.1a1.328,1.328,0,0,0-1.065-.487q-10.016,1.593-16.084-6.5c-.853-1.14-1.814-.432-2.7-.309-.3.041-.657.719-.73,1.15q-2.891,17.066-5.719,34.143c-.409,2.453-.8,4.909-1.223,7.519A68.185,68.185,0,0,1,452.514-985.526Zm27.726-66.4c-1.26-6.432-7.833-9.986-11.5-9.593-.028.175-.053.362-.09.547a1.845,1.845,0,0,1-1.913,1.651,1.9,1.9,0,0,1-1.947-1.753c-.049-.265-.062-.536-.1-.8a4.062,4.062,0,0,0-4.081-3.51,4.055,4.055,0,0,0-4.078,3.511c-.051.343-.07.692-.15,1.028a1.9,1.9,0,0,1-2.016,1.53,1.854,1.854,0,0,1-1.8-1.77,4.645,4.645,0,0,1,.169-1.825c.307-.838-.046-1.162-.719-1.5a9.644,9.644,0,0,0-13.272,5.2c-.15.4-.258.808-.428,1.193a1.936,1.936,0,0,1-2.357,1.157,1.941,1.941,0,0,1-1.355-2.254c.065-.41.2-.81.3-1.218-2.889-.588-6.17,1.8-6.269,4.555.249.056.507.111.764.173a7.845,7.845,0,0,1,4.567,2.938,1.919,1.919,0,0,1-.231,2.7,1.921,1.921,0,0,1-2.7-.126c-.2-.184-.358-.4-.549-.593a4.016,4.016,0,0,0-4.574-.875,4.094,4.094,0,0,0-2.474,3.841,4.3,4.3,0,0,0,2.015,3.566,1.939,1.939,0,0,1,.548,2.74,1.967,1.967,0,0,1-2.851.41c-.4-.263-.779-.563-1.27-.922-1.65,4.56-1.137,8.7,1.895,12.346s7.022,4.883,11.668,4.129c.075-1.806.075-1.806-1.475-2.319a6.639,6.639,0,0,1-4.638-6.358,2.72,2.72,0,0,1,1.056-1.848c1.22-.816,2.619.109,2.831,1.73.234,1.792,1.106,2.672,2.75,2.78.365-.762.685-1.547,1.1-2.277a1.925,1.925,0,0,1,2.654-.873,1.95,1.95,0,0,1,.849,2.664c-.138.317-.328.611-.464.929a8.188,8.188,0,0,0,.847,8.429,8.375,8.375,0,0,0,12.828.969,2.414,2.414,0,0,1,2.763-.848,15.379,15.379,0,0,0,9.64.349,1.974,1.974,0,0,1,2.582,1.287,1.99,1.99,0,0,1-1.611,2.491c-.839.239-1.7.414-2.781.674a11.535,11.535,0,0,0,1.467,1.487,17.689,17.689,0,0,0,2.6,1.481c.974.452,2,.791,3.013,1.159a13.391,13.391,0,0,1,5.449,3.77,2.044,2.044,0,0,0,2.622.512,1.893,1.893,0,0,0,1.043-2.333c-.357-1.193-.9-2.329-1.353-3.449-1.355.344-2.5.7-3.662.908a1.791,1.791,0,0,1-2.054-1.145,1.722,1.722,0,0,1,.477-2.2,4.493,4.493,0,0,1,1.678-.677,12.269,12.269,0,0,0,5.238-2.557c.7-.592,1.318-1.286,2.139-2.1a5.3,5.3,0,0,0-.663,0,12.273,12.273,0,0,1-10.271-2.221,1.57,1.57,0,0,0-1.139-.126,6.739,6.739,0,0,1-7.134-2.389c-1.237-1.485-1.291-2.716-.271-3.561,1.058-.877,2.023-.577,3.3,1.026a2.956,2.956,0,0,0,3.736.808,2.9,2.9,0,0,0,1.36-3.462c-.077-.257-.2-.5-.271-.76a1.926,1.926,0,0,1,1.094-2.29,1.9,1.9,0,0,1,2.43.716,5.157,5.157,0,0,1,.542,1.267,6.922,6.922,0,0,1-.868,5.808,8.312,8.312,0,0,0,10.384-.665c2.531-2.288,3.562-6.554,2.132-8.851a14.467,14.467,0,0,1-1.3.736,1.942,1.942,0,0,1-2.52-.754,1.975,1.975,0,0,1,.617-2.642c.218-.157.464-.274.688-.423a4.06,4.06,0,0,0,1.826-4.185,4.035,4.035,0,0,0-3.249-3.35,4.387,4.387,0,0,0-3.393.763,1.92,1.92,0,0,1-2.734-.579,1.917,1.917,0,0,1,.636-2.719C478.66-1051.132,479.432-1051.484,480.241-1051.926Zm16.883,28.627c.028.27.036.42.061.568q2.98,17.982,5.972,35.961c.61,3.638-1.926,5.97-5.454,4.859a65.74,65.74,0,0,0-23.576-2.952c-2.828.157-5.641.587-8.545.9.172,2.16.39,4.106.456,6.057.034,1.02.389,1.268,1.376,1.266q19.348-.049,38.7-.023c2.345,0,3.043-.89,2.6-3.182q-3.428-17.545-6.838-35.094c-.542-2.781-1.1-5.56-1.648-8.361ZM443.41-983.973c-3.044-.313-5.975-.735-8.92-.894a66.254,66.254,0,0,0-23.455,3.021,3.943,3.943,0,0,1-5.258-4.608c1.329-8.042,2.692-16.08,4.033-24.12.7-4.2,1.385-8.407,2.089-12.685h-3.118c-.1.459-.2.833-.271,1.21q-3.092,15.848-6.181,31.7-1.049,5.377-2.1,10.754c-.382,1.978.4,2.906,2.435,2.938.154,0,.308,0,.462,0h38.234a1.971,1.971,0,0,0,.8-.024c.282-.139.675-.412.7-.659C443.078-979.446,443.221-981.555,443.41-983.973Zm18.265.939c-1.846.624-3.528,1.061-5.093,1.76a4.752,4.752,0,0,1-4.179,0c-1.587-.7-3.292-1.137-5.084-1.735-.227,2.574-.391,4.907-.659,7.229A1.523,1.523,0,0,0,447.7-974a15.952,15.952,0,0,0,6.747,1.263,14.7,14.7,0,0,0,6.843-1.306c.438-.223,1.022-.79,1-1.173C462.174-977.743,461.911-980.261,461.674-983.034Z" transform="translate(-396.173 1085.15)" fill="#585858"/>
    <path id="Path_1479" data-name="Path 1479" d="M670.7-1171.089c.273.237,1,.589,1.272,1.158.869,1.8,1.6,3.659,2.325,5.522a1.922,1.922,0,0,1-1.067,2.577,1.923,1.923,0,0,1-2.567-1.115c-.786-1.8-1.551-3.6-2.241-5.435C667.881-1169.814,668.829-1171.131,670.7-1171.089Z" transform="translate(-630.784 1172.868)" fill="#585858"/>
    <path id="Path_1480" data-name="Path 1480" d="M932.146-1168.893a7.318,7.318,0,0,1-.25.853c-.679,1.668-1.358,3.336-2.07,4.99a1.96,1.96,0,0,1-2.662,1.286,2,2,0,0,1-.968-2.8q1.051-2.612,2.176-5.194a1.837,1.837,0,0,1,2.235-1.181A1.931,1.931,0,0,1,932.146-1168.893Z" transform="translate(-852.991 1172.792)" fill="#585858"/>
    <path id="Path_1481" data-name="Path 1481" d="M481.819-970.963a7.452,7.452,0,0,1-.938-.267c-1.632-.662-3.262-1.328-4.88-2.024a1.984,1.984,0,0,1-1.344-2.639,1.977,1.977,0,0,1,2.782-1.016c1.778.707,3.549,1.437,5.3,2.215a1.824,1.824,0,0,1,1.1,2.274A1.908,1.908,0,0,1,481.819-970.963Z" transform="translate(-463.716 1005.617)" fill="#585858"/>
    <path id="Path_1482" data-name="Path 1482" d="M1098.246-971a2.261,2.261,0,0,1-2-1.556,1.743,1.743,0,0,1,.893-2.256c1.947-.891,3.936-1.7,5.944-2.445a1.732,1.732,0,0,1,2.223.957,1.605,1.605,0,0,1-.409,2.272C1102.741-972.909,1100.472-972,1098.246-971Z" transform="translate(-999.707 1005.846)" fill="#585858"/>
    <path id="Path_1483" data-name="Path 1483" d="M565.83-1081.749c-.323.4-.654,1.176-1.211,1.408a2.45,2.45,0,0,1-2.008-.18,12.3,12.3,0,0,1-2.378-2.323,1.751,1.751,0,0,1-.028-2.334c.576-.758,1.49-1.175,2.216-.631a27.67,27.67,0,0,1,3.161,3.1C565.718-1082.566,565.7-1082.277,565.83-1081.749Z" transform="translate(-537.234 1099.549)" fill="#585858"/>
    <path id="Path_1484" data-name="Path 1484" d="M1041.849-1082.953a5.372,5.372,0,0,1-.578,1.389,22.233,22.233,0,0,1-2.431,2.429,1.772,1.772,0,0,1-2.5-.151,1.845,1.845,0,0,1-.184-2.592,12.692,12.692,0,0,1,2.37-2.319,2.466,2.466,0,0,1,2-.207C1041.086-1084.182,1041.441-1083.427,1041.849-1082.953Z" transform="translate(-947.6 1098.23)" fill="#585858"/>
    <path id="Path_1485" data-name="Path 1485" d="M809.1-1181.036c0,1.983-.628,2.936-1.95,2.961-1.355.025-2.012-.96-2.009-3.015,0-1.952.675-2.926,2.006-2.9S809.1-1183.015,809.1-1181.036Z" transform="translate(-748.794 1183.995)" fill="#585858"/>
    <path id="Path_1486" data-name="Path 1486" d="M774.237-886.027a12.477,12.477,0,0,1-5.836-3.2c-1.108-1.107-1.258-2.243-.418-3.13s2.026-.773,3.141.269a7.914,7.914,0,0,0,13.29-3.682c.052-.185.09-.375.151-.556A1.955,1.955,0,0,1,787-897.709a1.947,1.947,0,0,1,1.356,2.353,11.606,11.606,0,0,1-8.521,9.107,2.613,2.613,0,0,0-1.733,1.414,9.419,9.419,0,0,1-8.184,5.168c-1.448.08-2.383-.666-2.434-1.86-.048-1.13.769-1.966,2.166-2.06A6.011,6.011,0,0,0,774.237-886.027Z" transform="translate(-716.297 937.219)" fill="#585858"/>
    <path id="Path_1487" data-name="Path 1487" d="M707.958-945.979a9.047,9.047,0,0,1,8.823-8.751,1.925,1.925,0,0,1,2.172,1.866,1.964,1.964,0,0,1-1.9,2.055c-3.336.421-4.691,1.757-5.173,5.1-.188,1.3-.986,2.05-2.1,1.97A1.988,1.988,0,0,1,707.958-945.979Z" transform="translate(-665.003 986.315)" fill="#585858"/>
  </g>
</svg>
