<svg xmlns="http://www.w3.org/2000/svg" width="118.316" height="118.323" viewBox="0 0 118.316 118.323">
  <g id="B" transform="translate(0)">
    <path id="Path_1475" data-name="Path 1475" d="M-536.946-2233h5.546a3.583,3.583,0,0,0,.651.193,33.255,33.255,0,0,1,17.49,7.142,2.9,2.9,0,0,0,1.672.517c7.355.034,14.711.02,22.066.023,4.205,0,6.614,2.389,6.631,6.56,0,.41,0,.82,0,1.32.6,0,1.053,0,1.508,0a5.305,5.305,0,0,1,4.152,1.4,22.8,22.8,0,0,1,2.214,3.415v85.039c-1.615,3.9-3.043,4.835-7.382,4.835h-36.119a4.187,4.187,0,0,0-.17.383c-1.523,4.9-5,7.483-10.1,7.49-3.657.005-7.315.027-10.972-.016a11.3,11.3,0,0,1-2.959-.379c-3.763-1.081-6.031-3.651-7.07-7.478h-1.368q-17.96,0-35.92,0a5.914,5.914,0,0,1-6.251-6.224q-.01-41.117,0-82.234a5.932,5.932,0,0,1,6.149-6.219c.557-.01,1.114,0,1.722,0,0-.458,0-.724,0-.991.039-4.675,2.286-6.89,6.989-6.891,7.238,0,14.476.016,21.713-.029a3.3,3.3,0,0,0,1.846-.664,32.416,32.416,0,0,1,11.328-5.791C-541.4-2232.194-539.158-2232.544-536.946-2233Zm.747,67.047c-13.407-1.487-23.369-7.916-28.7-20.331-5.343-12.435-3.133-24.11,5.08-34.9H-561.1q-8.778,0-17.557,0c-2.265,0-2.855.6-2.855,2.89q0,40.484,0,80.969c0,2.365.57,2.94,2.925,2.94,11.627,0,23.255.029,34.882-.021a12.457,12.457,0,0,1,7.277,1.734c.034.022.129-.047.233-.089Zm4.052,33.51a11.414,11.414,0,0,1,7.277-1.961c11.782.041,23.565.02,35.348.016,1.988,0,2.689-.676,2.69-2.6q0-40.835,0-81.669c0-1.818-.709-2.527-2.52-2.529q-9.126-.012-18.251,0c-.275,0-.549.058-.965.106a33.153,33.153,0,0,1,7.819,19.056,33.147,33.147,0,0,1-4.842,20c4.036,4.027,8.02,7.989,11.991,11.966,3.389,3.394,3.521,8.241.332,11.45s-8.072,3.094-11.449-.269q-5.033-5.013-10.045-10.049c-.648-.652-1.226-1.372-1.842-2.066a34.262,34.262,0,0,1-15.54,4.955Zm-53.309-80.717c-2.541-.414-3.983-.082-3.975,3.157q.1,40.258.037,80.517c0,2.442.543,2.986,2.984,2.986q18.946,0,37.891,0c1.806,0,2.41.576,2.547,2.376a5.823,5.823,0,0,0,5.68,5.474q6.121.106,12.245,0a5.827,5.827,0,0,0,5.661-5.248c.208-2.187.671-2.6,2.909-2.6h37.544c2.437,0,2.981-.547,2.981-2.99q0-40.433,0-80.865a9.679,9.679,0,0,0-.016-1.039,1.9,1.9,0,0,0-1.744-1.85,17.982,17.982,0,0,0-2.177-.016v1.546q0,37.255,0,74.511c0,4.406-2.363,6.761-6.784,6.761q-17.906,0-35.811,0c-4.116,0-6.138,1.769-6.713,5.858-.177,1.257-.919,2.011-1.979,2.009s-1.795-.756-1.971-2.017c-.57-4.083-2.6-5.85-6.72-5.851q-17.848,0-35.7,0c-4.577,0-6.891-2.312-6.891-6.885q0-37.2,0-74.4Zm51.2,43.254a29.581,29.581,0,0,0,29.658-29.547,29.609,29.609,0,0,0-29.491-29.609,29.633,29.633,0,0,0-29.663,29.68A29.592,29.592,0,0,0-534.254-2169.906Zm21.184-3.014c3.766,3.8,7.723,7.826,11.747,11.788a3.889,3.889,0,0,0,2.059.9,3.736,3.736,0,0,0,3.991-2.113,3.878,3.878,0,0,0-.855-4.649q-5.609-5.648-11.254-11.259a5.045,5.045,0,0,0-.52-.4l.249.336Z" transform="translate(593.331 2233)" fill="#585858"/>
    <path id="Path_1476" data-name="Path 1476" d="M-324.415-2124.516a25.687,25.687,0,0,1-25.614-25.9c.064-13.844,11.687-25.442,25.434-25.379a25.65,25.65,0,0,1,25.84,25.9A25.686,25.686,0,0,1-324.415-2124.516Zm-.063-3.945a21.729,21.729,0,0,0,21.783-21.806,21.765,21.765,0,0,0-21.784-21.588,21.791,21.791,0,0,0-21.612,21.647A21.745,21.745,0,0,0-324.478-2128.461Z" transform="translate(383.549 2183.673)" fill="#585858"/>
    <path id="Path_1477" data-name="Path 1477" d="M-262.457-2118.452c1.96-.041,2.876.673,2.927,1.875s-.76,1.969-2.248,2.051a13.776,13.776,0,0,0-11.476,6.648c-.78,1.223-1.905,1.564-2.914.926s-1.192-1.8-.414-3.027A17.478,17.478,0,0,1-262.457-2118.452Z" transform="translate(320.634 2134.234)" fill="#585858"/>
  </g>
</svg>
