<svg xmlns="http://www.w3.org/2000/svg" width="118.326" height="92.678" viewBox="0 0 118.326 92.678">
  <g id="D" transform="translate(0 0)">
    <path id="Path_1502" data-name="Path 1502" d="M1617-1313.692c.34-1.768.583-3.562,1.037-5.3,2.084-7.983,6.633-14.411,12.782-19.752,8.611-7.479,18.726-11.863,29.83-14.021,15.954-3.1,31.492-1.733,46.421,4.883,8.7,3.855,16.2,9.33,21.731,17.2,9.124,12.982,8.663,28.848-1.288,41.229-2.038,2.535-4.512,4.719-6.8,7.054-.342.35-.766.531-.441,1.211a61.867,61.867,0,0,0,6.637,11.462,11.7,11.7,0,0,0,5.259,4.349,1.74,1.74,0,0,1,1.087,2.173,1.767,1.767,0,0,1-1.89,1.531c-3.5-.061-7.012.017-10.489-.3a51.59,51.59,0,0,1-19.289-5.514,43.3,43.3,0,0,1-3.764-2.243,2.166,2.166,0,0,0-1.915-.334c-16.017,4-31.819,3.366-47.291-2.519-9.595-3.65-17.943-9.154-24.243-17.423a34.471,34.471,0,0,1-7.183-17.5,3.525,3.525,0,0,0-.195-.644Zm108.156,48.11c-.4-.526-.618-.829-.85-1.123a56.079,56.079,0,0,1-7.715-13.078c-.942-2.246-.51-3.695,1.237-5.355a70.7,70.7,0,0,0,6.523-6.672c9.045-11.226,9.372-25.387.939-37.068-5.509-7.63-12.982-12.758-21.6-16.2a73.114,73.114,0,0,0-50.5-1.677c-9.215,2.913-17.385,7.636-23.854,14.961-5.1,5.775-8.22,12.439-8.381,20.251-.169,8.217,2.95,15.233,8.271,21.33,6.293,7.212,14.28,11.864,23.25,14.87a74.47,74.47,0,0,0,42.982,1.343,5.188,5.188,0,0,1,4.157.7,67.024,67.024,0,0,0,7.848,4.1A53.244,53.244,0,0,0,1725.156-1265.582Z" transform="translate(-1617 1354.347)" fill="#585858"/>
    <path id="Path_1503" data-name="Path 1503" d="M1966.353-1095.349c-.473-.092-.965-.157-1.441-.287a5.837,5.837,0,0,1-4.317-5.5c-.035-1.347-.026-2.695-.009-4.042a5.82,5.82,0,0,1,5.747-6q5.077-.147,10.162,0c3.422.1,5.756,2.678,5.771,6.237.027,6.622.008,13.243.008,19.865v1.386c.682.153,1.287.24,1.86.425a5.779,5.779,0,0,1,3.993,5.27c.05,1.5.052,3,0,4.5a5.753,5.753,0,0,1-5.6,5.655q-8.141.109-16.284,0a5.786,5.786,0,0,1-5.656-5.724c-.033-1.231-.016-2.464-.01-3.7.017-3.639,2.02-5.881,5.77-6.356Zm11.974,2c0-3.813.01-7.626-.005-11.438-.006-1.573-.64-2.424-2-2.449-3.272-.06-6.547-.055-9.82,0a1.9,1.9,0,0,0-1.974,2.1c-.027,1.232-.029,2.465,0,3.7a1.91,1.91,0,0,0,2,2.063c.422.031.847.01,1.271.015,1.995.022,2.609.631,2.613,2.648q.013,6.586,0,13.171c0,3.739-.04,3.78-3.773,3.926a1.926,1.926,0,0,0-2.114,2.062c-.031,1.232-.028,2.465,0,3.7a1.937,1.937,0,0,0,2.086,2.105q7.741.036,15.482,0a1.931,1.931,0,0,0,2.1-2.086q.046-1.847,0-3.7a1.916,1.916,0,0,0-2.092-2.08c-.423-.016-.847,0-1.271,0-1.832-.019-2.5-.676-2.508-2.518C1978.319-1085.878,1978.327-1089.613,1978.326-1093.349Z" transform="translate(-1913.238 1144.745)" fill="#585858"/>
    <path id="Path_1504" data-name="Path 1504" d="M1984.628-1262.746a9.881,9.881,0,0,1-9.872-9.811,9.877,9.877,0,0,1,9.928-9.867,9.872,9.872,0,0,1,9.811,9.868A9.865,9.865,0,0,1,1984.628-1262.746Zm.019-3.938a5.915,5.915,0,0,0,5.9-5.863,5.922,5.922,0,0,0-5.94-5.939,5.921,5.921,0,0,0-5.9,5.866A5.917,5.917,0,0,0,1984.647-1266.684Z" transform="translate(-1925.469 1292.332)" fill="#585858"/>
    <path id="Path_1505" data-name="Path 1505" d="M1688.792-1190.238a23.137,23.137,0,0,1,6.084-14.156,62.181,62.181,0,0,1,6.006-5.7c1.243-1.087,2.5-.98,3.233,0,.774,1.04.487,2.072-.866,3.108a30.207,30.207,0,0,0-8.042,8.954,17.789,17.789,0,0,0-2.5,8.655,2,2,0,0,1-2.07,2.145c-1.158-.059-1.852-.932-1.851-2.329Z" transform="translate(-1678.901 1230.64)" fill="#585858"/>
    <path id="Path_1506" data-name="Path 1506" d="M1821.461-1237.52a1.925,1.925,0,0,1-1.943,1.975,1.936,1.936,0,0,1-1.947-1.974,1.928,1.928,0,0,1,1.887-1.918A1.93,1.93,0,0,1,1821.461-1237.52Z" transform="translate(-1789.938 1255.269)" fill="#585858"/>
  </g>
</svg>
