<svg xmlns="http://www.w3.org/2000/svg" width="35" height="35" viewBox="0 0 35 35"><g transform="translate(0 0)"><path d="M2804.956,5035.947a17.5,17.5,0,1,1,17.5-17.5A17.52,17.52,0,0,1,2804.956,5035.947Zm5.9-24.6a1.295,1.295,0,1,0,1.3,1.3A1.3,1.3,0,0,0,2810.856,5011.347Zm-5.756,1.66a5.44,5.44,0,1,0,5.439,5.44A5.447,5.447,0,0,0,2805.1,5013.007Zm0,8.925a3.484,3.484,0,1,1,3.484-3.484A3.489,3.489,0,0,1,2805.1,5021.932Zm10.976-8a6.636,6.636,0,0,0-6.636-6.636h-8.756a6.636,6.636,0,0,0-6.635,6.636v8.757a6.635,6.635,0,0,0,6.635,6.634h8.756a6.635,6.635,0,0,0,6.636-6.634Zm-2.078,8.757a4.557,4.557,0,0,1-4.558,4.556h-8.756a4.557,4.557,0,0,1-4.557-4.556v-8.757a4.558,4.558,0,0,1,4.557-4.558h8.756a4.558,4.558,0,0,1,4.558,4.558Z" transform="translate(-2787.455 -5000.947)" fill="#fff"/></g></svg>