<svg xmlns="http://www.w3.org/2000/svg" width="29.396" height="29.344" viewBox="0 0 29.396 29.344"><path d="M400.321-1058.752a1.168,1.168,0,0,1,1.293-1.292,4.122,4.122,0,0,1-.006-2.414.27.27,0,0,1,.007-.028,4.955,4.955,0,0,0,.495-1.84,1.664,1.664,0,0,1,.957-1.346.5.5,0,0,0,.271-.4,2.465,2.465,0,0,1,2.927-2.006.414.414,0,0,0,.319-.1,3.441,3.441,0,0,1,4.441-.645c.06-.043.129-.09.2-.14a2.041,2.041,0,0,1,2.779.349.559.559,0,0,0,.352.181,4.226,4.226,0,0,1,4.014,3.261.422.422,0,0,0,.231.241,2.033,2.033,0,0,1,1.337,2.508.393.393,0,0,0,0,.25,3.156,3.156,0,0,1,.331,2.133c.806.043,1.14.521,1.167,1.286.3,0,.57,0,.84,0a1.024,1.024,0,0,1,1.139.96q1.055,5.426,2.113,10.851a1.51,1.51,0,0,1-1.6,1.952q-4.938,0-9.877,0a.655.655,0,0,0-.529.213,2.877,2.877,0,0,1-1.744.716,5.938,5.938,0,0,1-2.538-.159,2.341,2.341,0,0,1-1.141-.666.543.543,0,0,0-.365-.1c-3.283,0-6.565,0-9.848-.009a2.327,2.327,0,0,1-.77-.114,1.472,1.472,0,0,1-.909-1.724q1.072-5.526,2.153-11.05a.991.991,0,0,1,1.039-.869C399.7-1058.759,400-1058.752,400.321-1058.752Zm10.058,10.532v-.395q0-2.855,0-5.71c0-.391.2-.619.506-.613s.48.225.49.6c0,.078,0,.155,0,.233q0,2.753,0,5.506v.376a17.19,17.19,0,0,1,10.8-.006c-.007-.085-.008-.123-.014-.159q-.371-2.239-.743-4.478-.494-2.971-.994-5.94c-.014-.082-.1-.206-.166-.213-.144-.016-.347-.023-.431.062a1.3,1.3,0,0,0-.279.527,4.313,4.313,0,0,1-1.044,1.792c-.169.171-.353.327-.522.482a7.614,7.614,0,0,1,.38.957,2.068,2.068,0,0,1,.053.855,1.4,1.4,0,0,1-1.051,1.134,1.43,1.43,0,0,1-1.52-.411,3.26,3.26,0,0,0-1.334-.847,4.961,4.961,0,0,1-1.053-.483,2.016,2.016,0,0,1-.811-.759,1.161,1.161,0,0,0-1.165-.752.491.491,0,0,0-.307.065,3.12,3.12,0,0,1-4.664-.781.335.335,0,0,0-.269-.123,3.955,3.955,0,0,1-4.055-1.639c-.215-.288-.457-.109-.682-.078-.075.01-.166.181-.184.29q-.729,4.3-1.442,8.609c-.1.619-.2,1.238-.308,1.9A17.192,17.192,0,0,1,410.379-1048.22Zm6.991-16.742a3.064,3.064,0,0,0-2.9-2.419c-.007.044-.013.091-.023.138a.465.465,0,0,1-.482.416.479.479,0,0,1-.491-.442c-.012-.067-.016-.135-.025-.2a1.024,1.024,0,0,0-1.029-.885,1.022,1.022,0,0,0-1.028.885c-.013.086-.018.175-.038.259a.478.478,0,0,1-.508.386.467.467,0,0,1-.453-.446,1.17,1.17,0,0,1,.043-.46c.077-.211-.012-.293-.181-.378a2.432,2.432,0,0,0-3.346,1.311c-.038.1-.065.2-.108.3a.488.488,0,0,1-.594.292.49.49,0,0,1-.342-.568c.016-.1.049-.2.075-.307a1.367,1.367,0,0,0-1.581,1.149c.063.014.128.028.193.044a1.977,1.977,0,0,1,1.151.741.484.484,0,0,1-.058.681.484.484,0,0,1-.682-.032c-.049-.046-.09-.1-.138-.15a1.013,1.013,0,0,0-1.153-.221,1.032,1.032,0,0,0-.624.969,1.084,1.084,0,0,0,.508.9.489.489,0,0,1,.138.691.5.5,0,0,1-.719.1c-.1-.066-.2-.142-.32-.232a2.977,2.977,0,0,0,.478,3.113,2.966,2.966,0,0,0,2.942,1.041c.019-.455.019-.455-.372-.585a1.674,1.674,0,0,1-1.169-1.6.686.686,0,0,1,.266-.466c.308-.206.66.027.714.436a.691.691,0,0,0,.694.7c.092-.192.173-.39.278-.574a.485.485,0,0,1,.669-.22.492.492,0,0,1,.214.672c-.035.08-.083.154-.117.234a2.065,2.065,0,0,0,.213,2.125,2.112,2.112,0,0,0,3.235.244.609.609,0,0,1,.7-.214,3.877,3.877,0,0,0,2.431.088.5.5,0,0,1,.651.325.5.5,0,0,1-.406.628c-.212.06-.428.1-.7.17a2.907,2.907,0,0,0,.37.375,4.45,4.45,0,0,0,.655.374c.246.114.5.2.76.292a3.378,3.378,0,0,1,1.374.951.515.515,0,0,0,.661.129.477.477,0,0,0,.263-.588c-.09-.3-.228-.587-.341-.87-.342.087-.629.176-.923.229a.452.452,0,0,1-.518-.289.434.434,0,0,1,.12-.553,1.133,1.133,0,0,1,.423-.171,3.093,3.093,0,0,0,1.321-.645c.177-.149.332-.324.539-.529a1.3,1.3,0,0,0-.167,0,3.094,3.094,0,0,1-2.59-.56.4.4,0,0,0-.287-.032,1.7,1.7,0,0,1-1.8-.6c-.312-.374-.326-.685-.068-.9s.51-.146.833.259a.745.745,0,0,0,.942.2.731.731,0,0,0,.343-.873c-.019-.065-.051-.126-.068-.192a.486.486,0,0,1,.276-.578.478.478,0,0,1,.613.181,1.3,1.3,0,0,1,.137.319,1.746,1.746,0,0,1-.219,1.464,2.1,2.1,0,0,0,2.618-.168,1.982,1.982,0,0,0,.538-2.232,3.694,3.694,0,0,1-.328.186.49.49,0,0,1-.635-.19.5.5,0,0,1,.156-.666c.055-.04.117-.069.174-.107a1.024,1.024,0,0,0,.46-1.055,1.017,1.017,0,0,0-.819-.845,1.105,1.105,0,0,0-.855.192.484.484,0,0,1-.689-.146.483.483,0,0,1,.16-.686C416.971-1064.762,417.166-1064.85,417.37-1064.962Zm4.257,7.218c.007.068.009.106.015.143q.752,4.534,1.506,9.067a1.01,1.01,0,0,1-1.375,1.225,16.577,16.577,0,0,0-5.945-.744c-.713.04-1.422.148-2.155.227.043.545.1,1.035.115,1.527.009.257.1.32.347.319q4.879-.012,9.757-.006c.591,0,.767-.224.654-.8q-.864-4.424-1.724-8.849c-.137-.7-.276-1.4-.416-2.108Zm-13.544,9.916c-.768-.079-1.507-.185-2.249-.225a16.7,16.7,0,0,0-5.914.762.994.994,0,0,1-1.326-1.162c.335-2.028.679-4.054,1.017-6.082.177-1.06.349-2.12.527-3.2h-.786c-.026.116-.05.21-.068.305q-.78,4-1.558,7.992-.264,1.356-.529,2.711c-.1.5.1.733.614.741h9.757a.5.5,0,0,0,.2-.006c.071-.035.17-.1.177-.166C408-1046.687,408.035-1047.218,408.083-1047.828Zm4.605.237c-.465.157-.889.268-1.284.444a1.2,1.2,0,0,1-1.054,0c-.4-.177-.83-.287-1.282-.437-.057.649-.1,1.237-.166,1.823a.384.384,0,0,0,.261.449,4.021,4.021,0,0,0,1.7.318,3.705,3.705,0,0,0,1.725-.329c.11-.056.258-.2.253-.3C412.814-1046.257,412.748-1046.892,412.688-1047.591Z" transform="translate(-396.173 1073.339)" fill="#777"/><path d="M668.882-1171.09c.069.06.251.149.321.292.219.453.4.923.586,1.392a.485.485,0,0,1-.269.65.485.485,0,0,1-.647-.281c-.2-.453-.391-.908-.565-1.37C668.172-1170.768,668.411-1171.1,668.882-1171.09Z" transform="translate(-658.818 1171.538)" fill="#777"/><path d="M927.536-1170.47a1.819,1.819,0,0,1-.063.215c-.171.42-.342.841-.522,1.258a.494.494,0,0,1-.671.324.5.5,0,0,1-.244-.706q.265-.659.549-1.31a.463.463,0,0,1,.563-.3A.486.486,0,0,1,927.536-1170.47Z" transform="translate(-907.577 1171.453)" fill="#777"/><path d="M476.352-975.564a1.884,1.884,0,0,1-.237-.067c-.411-.167-.823-.335-1.23-.51a.5.5,0,0,1-.339-.665.5.5,0,0,1,.7-.256c.448.178.895.362,1.336.558a.46.46,0,0,1,.277.574A.481.481,0,0,1,476.352-975.564Z" transform="translate(-471.787 984.302)" fill="#777"/><path d="M1096.67-975.773a.571.571,0,0,1-.5-.392.44.44,0,0,1,.225-.569c.491-.225.992-.428,1.5-.616a.437.437,0,0,1,.56.241.4.4,0,0,1-.1.573C1097.8-976.254,1097.231-976.024,1096.67-975.773Z" transform="translate(-1071.824 984.558)" fill="#777"/><path d="M561.3-1084.97c-.081.1-.165.3-.305.355a.618.618,0,0,1-.506-.045,3.109,3.109,0,0,1-.6-.586.442.442,0,0,1-.007-.589c.145-.191.376-.3.559-.159a6.99,6.99,0,0,1,.8.782C561.272-1085.176,561.268-1085.1,561.3-1084.97Z" transform="translate(-554.09 1089.458)" fill="#777"/><path d="M1037.255-1084.13a1.351,1.351,0,0,1-.146.35,5.62,5.62,0,0,1-.613.613.447.447,0,0,1-.631-.038.465.465,0,0,1-.046-.654,3.2,3.2,0,0,1,.6-.584.621.621,0,0,1,.5-.052C1037.063-1084.439,1037.153-1084.249,1037.255-1084.13Z" transform="translate(-1013.491 1087.982)" fill="#777"/><path d="M806.134-1183.249c0,.5-.158.74-.492.747s-.507-.242-.507-.76c0-.492.17-.738.506-.732S806.134-1183.747,806.134-1183.249Z" transform="translate(-790.93 1183.995)" fill="#777"/><path d="M769.159-894.824a3.145,3.145,0,0,1-1.472-.808c-.279-.279-.317-.566-.105-.789s.511-.195.792.068a2,2,0,0,0,3.351-.928c.013-.047.023-.094.038-.14a.493.493,0,0,1,.615-.347.491.491,0,0,1,.342.593,2.926,2.926,0,0,1-2.148,2.3.659.659,0,0,0-.437.357,2.375,2.375,0,0,1-2.064,1.3c-.365.02-.6-.168-.614-.469-.012-.285.194-.5.546-.52A1.516,1.516,0,0,0,769.159-894.824Z" transform="translate(-754.549 907.732)" fill="#777"/><path d="M707.957-952.523a2.281,2.281,0,0,1,2.224-2.206.485.485,0,0,1,.548.471.5.5,0,0,1-.479.518,1.279,1.279,0,0,0-1.3,1.286c-.047.329-.249.517-.531.5A.5.5,0,0,1,707.957-952.523Z" transform="translate(-697.126 962.693)" fill="#777"/></svg>