<svg xmlns="http://www.w3.org/2000/svg" width="13.211" height="18.055" viewBox="0 0 13.211 18.055"><path d="M-1435.683-261.679h.977c.239.037.479.071.718.112a6.607,6.607,0,0,1,5.221,4.969c.078.345.124.7.185,1.048v.827c-.057.275-.1.552-.172.823a15.053,15.053,0,0,1-1.537,3.534,51.948,51.948,0,0,1-4.4,6.468.6.6,0,0,1-1.028-.025c-1.09-1.39-2.122-2.821-3.083-4.3a27.574,27.574,0,0,1-2.424-4.441,6.3,6.3,0,0,1-.479-3.59,6.675,6.675,0,0,1,4.974-5.235C-1436.385-261.569-1436.032-261.618-1435.683-261.679Zm.485,3.61a2.407,2.407,0,0,0-2.4,2.423,2.409,2.409,0,0,0,2.417,2.389,2.41,2.41,0,0,0,2.392-2.414A2.408,2.408,0,0,0-1435.2-258.069Z" transform="translate(1441.792 261.679)" fill="#585858"/></svg>