<svg xmlns="http://www.w3.org/2000/svg" width="29.832" height="29.834" viewBox="0 0 29.832 29.834"><path d="M-579.114-2233h1.4a.886.886,0,0,0,.164.049,8.385,8.385,0,0,1,4.41,1.8.73.73,0,0,0,.422.13c1.855.009,3.709.006,5.564.006a1.517,1.517,0,0,1,1.672,1.654c0,.1,0,.207,0,.333h.38a1.338,1.338,0,0,1,1.047.352,5.762,5.762,0,0,1,.558.861v21.442a1.6,1.6,0,0,1-1.861,1.219h-9.107c-.021.046-.035.071-.043.1a2.479,2.479,0,0,1-2.547,1.888c-.922,0-1.844.007-2.767,0a2.848,2.848,0,0,1-.746-.1,2.485,2.485,0,0,1-1.783-1.886h-.345q-4.528,0-9.057,0a1.491,1.491,0,0,1-1.576-1.569q0-10.367,0-20.735a1.5,1.5,0,0,1,1.55-1.568c.14,0,.281,0,.434,0,0-.115,0-.183,0-.25a1.538,1.538,0,0,1,1.762-1.738c1.825,0,3.65,0,5.475-.007a.832.832,0,0,0,.466-.167,8.169,8.169,0,0,1,2.856-1.46C-580.237-2232.8-579.672-2232.885-579.114-2233Zm.188,16.906a8.3,8.3,0,0,1-7.237-5.126,8.3,8.3,0,0,1,1.281-8.8h-4.75c-.571,0-.72.151-.72.729q0,10.208,0,20.416c0,.6.144.741.737.741,2.932,0,5.864.007,8.8-.006a3.141,3.141,0,0,1,1.835.437c.008.006.032-.012.059-.022Zm1.022,8.449a2.88,2.88,0,0,1,1.835-.494c2.971.01,5.942.005,8.913,0,.5,0,.678-.171.678-.655q0-10.3,0-20.592c0-.458-.179-.637-.635-.637q-2.3,0-4.6,0c-.069,0-.138.015-.243.027a8.358,8.358,0,0,1,1.972,4.8,8.358,8.358,0,0,1-1.221,5.042c1.018,1.015,2.022,2.015,3.023,3.017a1.989,1.989,0,0,1,.084,2.887,1.99,1.99,0,0,1-2.887-.068q-1.269-1.263-2.533-2.533c-.163-.165-.309-.346-.465-.521a8.639,8.639,0,0,1-3.918,1.25ZM-591.345-2228c-.641-.1-1-.021-1,.8q.025,10.151.009,20.3c0,.616.137.753.752.753h9.554c.455,0,.608.146.642.6a1.468,1.468,0,0,0,1.432,1.38q1.543.027,3.087,0a1.469,1.469,0,0,0,1.427-1.323c.052-.552.169-.656.733-.656h9.466c.614,0,.752-.138.752-.754q0-10.195,0-20.39a2.431,2.431,0,0,0,0-.262.478.478,0,0,0-.44-.467,4.564,4.564,0,0,0-.549,0v.39q0,9.394,0,18.787a1.531,1.531,0,0,1-1.711,1.705h-9.03a1.489,1.489,0,0,0-1.693,1.477c-.045.317-.232.507-.5.507s-.453-.191-.5-.509a1.489,1.489,0,0,0-1.694-1.475h-9a1.539,1.539,0,0,1-1.737-1.736q0-9.379,0-18.758Zm12.91,10.906a7.459,7.459,0,0,0,7.478-7.45,7.466,7.466,0,0,0-7.436-7.466,7.472,7.472,0,0,0-7.479,7.484A7.461,7.461,0,0,0-578.435-2217.092Zm5.341-.76c.95.957,1.947,1.973,2.962,2.972a.983.983,0,0,0,.519.226.942.942,0,0,0,1.006-.532.978.978,0,0,0-.216-1.172q-1.414-1.425-2.838-2.839a1.318,1.318,0,0,0-.131-.1l.063.085Z" transform="translate(593.331 2233)" fill="#777"/><path d="M-343.572-2162.863a6.477,6.477,0,0,1-6.458-6.529,6.484,6.484,0,0,1,6.413-6.4,6.467,6.467,0,0,1,6.515,6.529A6.476,6.476,0,0,1-343.572-2162.863Zm-.016-.995a5.479,5.479,0,0,0,5.492-5.5,5.488,5.488,0,0,0-5.493-5.443,5.494,5.494,0,0,0-5.449,5.458A5.483,5.483,0,0,0-343.587-2163.857Z" transform="translate(358.482 2177.778)" fill="#777"/><path d="M-273.38-2118.453c.494-.01.725.17.738.473s-.192.5-.567.517a3.472,3.472,0,0,0-2.893,1.676.511.511,0,0,1-.735.233.509.509,0,0,1-.1-.763A4.408,4.408,0,0,1-273.38-2118.453Z" transform="translate(288.049 2122.433)" fill="#777"/></svg>