<svg xmlns="http://www.w3.org/2000/svg" width="20" height="20" viewBox="0 0 20 20"><g transform="translate(-2603 -702)"><g transform="translate(2603 702)"><path d="M2612.336,722h-.352a.429.429,0,0,0-.085-.038c-2.672-.535-5.343-1.074-8.017-1.6a1.007,1.007,0,0,1-.882-.708V702.664a.975.975,0,0,1,.742-.664h13.594a.958.958,0,0,1,.67,1.054c-.018,1.393-.006,2.786-.006,4.179,0,.215.007.43,0,.644a.822.822,0,0,1-.953.773.843.843,0,0,1-.712-.926q0-1.9,0-3.808v-.236h-6.649a.418.418,0,0,0,.168.085l2.407.727A.873.873,0,0,1,2613,705.5v13.155h3.33v-.247q0-1.894,0-3.789a.867.867,0,0,1,.532-.893.832.832,0,0,1,1.135.818c0,1.6,0,3.2,0,4.8a.856.856,0,0,1-.975.983H2613c0,.225-.012.421,0,.615A.931.931,0,0,1,2612.336,722Z" transform="translate(-2603 -702)" fill="#585858"/><path d="M2910.191,854.923a5.164,5.164,0,0,1-.452.62c-.74.759-1.494,1.506-2.247,2.253a.833.833,0,1,1-1.2-1.156c.29-.3.588-.589.882-.884.044-.044.086-.092.157-.168h-.242q-2.167,0-4.334,0a.829.829,0,0,1-.893-.883.812.812,0,0,1,.646-.757,1.862,1.862,0,0,1,.349-.028q2.108,0,4.216,0h.25c-.082-.088-.132-.144-.184-.2-.31-.315-.635-.617-.928-.949a.8.8,0,0,1,.064-1.113.826.826,0,0,1,1.1-.043,2.5,2.5,0,0,1,.186.173c.713.713,1.432,1.42,2.136,2.142a6.185,6.185,0,0,1,.485.642Z" transform="translate(-2890.191 -845.587)" fill="#585858"/></g></g></svg>