<svg xmlns="http://www.w3.org/2000/svg" width="18.402" height="18.396" viewBox="0 0 18.402 18.396"><g transform="translate(-464.701 1388.888)"><path d="M466-1388.888h8.949c.045.012.09.028.136.036a2.278,2.278,0,0,1,1.871,2.047c.032.855.012,1.713.01,2.569a.678.678,0,0,1-.278.541.729.729,0,0,1-.793.1.709.709,0,0,1-.449-.678c-.005-.737,0-1.474,0-2.21a.778.778,0,0,0-.86-.871q-1.6,0-3.2,0c-.052,0-.1,0-.161.007.012.018.016.032.024.035a1.56,1.56,0,0,1,1.123,1.7q0,5.526,0,11.052v.237h2.2a.781.781,0,0,0,.87-.879c0-.952,0-1.9,0-2.857a1.183,1.183,0,0,1,.028-.3.76.76,0,0,1,.8-.555.745.745,0,0,1,.692.742q.011,1.537,0,3.073a2.289,2.289,0,0,1-2.331,2.316c-.689,0-1.378,0-2.067,0h-.2c0,.242,0,.457,0,.672a2.17,2.17,0,0,1-.029.393,1.532,1.532,0,0,1-2.04,1.141q-2.205-.73-4.407-1.47a1.553,1.553,0,0,1-1.186-1.65q0-6.748,0-13.5c0-.06,0-.12,0-.18a1.517,1.517,0,0,1,.941-1.391A3.477,3.477,0,0,1,466-1388.888Z" transform="translate(0)" fill="#fff"/><path d="M750-1278.453a4.983,4.983,0,0,1-.422.566c-.933.947-1.878,1.883-2.817,2.824a.789.789,0,0,1-.727.262.761.761,0,0,1-.633-.78c0-.683,0-1.365,0-2.048v-.223h-.217c-.928,0-1.857,0-2.785,0a.772.772,0,0,1-.813-.616.76.76,0,0,1,.773-.918c.94,0,1.881,0,2.821,0h.221v-.2c0-.677,0-1.354,0-2.03a.758.758,0,0,1,.473-.774.76.76,0,0,1,.884.206c.994,1,1.992,1.989,2.982,2.99a2.259,2.259,0,0,1,.263.418Z" transform="translate(-266.896 -102.6)" fill="#fff"/></g></svg>