<svg xmlns="http://www.w3.org/2000/svg" width="35" height="35" viewBox="0 0 35 35"><g transform="translate(-744.946 628.942)"><path d="M861.5-478.83h7.962a2.007,2.007,0,0,1,2.225,2.218q0,4.991,0,9.982a2.019,2.019,0,0,1-2.222,2.228q-8,.005-15.992,0a2.018,2.018,0,0,1-2.225-2.225q0-4.991,0-9.982a2.011,2.011,0,0,1,2.222-2.221Zm-8.591,2.488c-.01.158-.02.237-.02.315q0,4.716,0,9.432c0,.471.092.553.6.553h15.954c.519,0,.6-.079.6-.594q0-4.665,0-9.33c0-.1-.015-.209-.026-.359-.13.1-.211.155-.29.218l-7.569,6.012a.9.9,0,0,1-1.39-.006q-3.088-2.456-6.177-4.909C854.048-475.441,853.505-475.868,852.906-476.343Zm15.494-.809H854.519c.1.071.123.09.15.112q3.291,2.614,6.579,5.232a.288.288,0,0,0,.436,0c.885-.717,1.78-1.422,2.672-2.13Z" transform="translate(-99.018 -139.827)" fill="#fff"/><path d="M761.417-628.942h2.05c.1.02.2.044.3.059.954.148,1.924.228,2.86.452a17.52,17.52,0,0,1,13.006,20.265,17.012,17.012,0,0,1-5.334,9.585,17.089,17.089,0,0,1-14.265,4.474,16.7,16.7,0,0,1-9.112-4.165,17.138,17.138,0,0,1-5.706-10.153c-.115-.658-.18-1.324-.269-1.986v-2.052c.021-.121.046-.241.062-.362.083-.631.132-1.269.251-1.894A17.1,17.1,0,0,1,750-623.736a17.059,17.059,0,0,1,9.426-4.936C760.086-628.786,760.753-628.853,761.417-628.942Zm1.03,2.052A15.476,15.476,0,0,0,747-611.433a15.475,15.475,0,0,0,15.423,15.45,15.476,15.476,0,0,0,15.468-15.44A15.476,15.476,0,0,0,762.447-626.89Z" fill="#fff"/></g></svg>