<svg xmlns="http://www.w3.org/2000/svg" width="35" height="35" viewBox="0 0 35 35"><path d="M204.527-345.746h2.05c.1.02.2.044.3.059.954.148,1.924.228,2.86.452a17.52,17.52,0,0,1,13.006,20.265,17.013,17.013,0,0,1-5.334,9.585,17.089,17.089,0,0,1-14.266,4.474,16.7,16.7,0,0,1-9.112-4.165,17.139,17.139,0,0,1-5.706-10.153c-.115-.658-.181-1.324-.269-1.986v-2.051c.021-.121.046-.241.062-.362.083-.632.132-1.269.251-1.894a17.1,17.1,0,0,1,4.742-9.018,17.059,17.059,0,0,1,9.426-4.936C203.2-345.59,203.863-345.657,204.527-345.746Zm1.03,2.052a15.476,15.476,0,0,0-15.45,15.457,15.475,15.475,0,0,0,15.423,15.45A15.476,15.476,0,0,0,221-328.227,15.476,15.476,0,0,0,205.557-343.694Z" transform="translate(-188.056 345.746)" fill="#fff"/><path d="M299.822-236.163l4.827,4.835c.27-.276.558-.577.853-.871a2.932,2.932,0,0,1,4.414,0c.582.578,1.164,1.156,1.738,1.742a2.929,2.929,0,0,1,.038,4.25q-.851.888-1.741,1.739a5.164,5.164,0,0,1-4.338,1.276,12.376,12.376,0,0,1-5.379-2.033,20.345,20.345,0,0,1-6.832-7.041,12.123,12.123,0,0,1-1.7-4.826,5.2,5.2,0,0,1,1.524-4.618c.5-.468.963-.97,1.452-1.447a2.875,2.875,0,0,1,4.112-.14,23.838,23.838,0,0,1,2.144,2.154,2.86,2.86,0,0,1-.154,4.059C300.467-236.76,300.129-236.456,299.822-236.163ZM306.1-225.2a3.168,3.168,0,0,0,2.5-.816q.818-.8,1.618-1.619a.883.883,0,0,0-.006-1.355q-.887-.9-1.787-1.789a.9.9,0,0,0-1.454.007c-.526.521-1.044,1.05-1.571,1.57a1.026,1.026,0,0,1-1.593.012q-3.061-3.051-6.111-6.115a1.023,1.023,0,0,1,.01-1.593c.519-.528,1.047-1.047,1.569-1.572a.909.909,0,0,0,.012-1.453q-.866-.873-1.739-1.74a.907.907,0,0,0-1.455-.006c-.519.512-1.028,1.034-1.548,1.545a2.819,2.819,0,0,0-.824,1.965,7.866,7.866,0,0,0,.993,4,17.748,17.748,0,0,0,8.577,8.233A7.363,7.363,0,0,0,306.1-225.2Z" transform="translate(-284.564 251.06)" fill="#fff"/></svg>