<svg xmlns="http://www.w3.org/2000/svg" width="29.835" height="23.368" viewBox="0 0 29.835 23.368"><path d="M1617-1344.1c.086-.446.147-.9.262-1.337a9.823,9.823,0,0,1,3.223-4.98,15.816,15.816,0,0,1,7.521-3.535,19.206,19.206,0,0,1,11.7,1.231,12.866,12.866,0,0,1,5.479,4.338,8.4,8.4,0,0,1-.325,10.4c-.514.639-1.138,1.19-1.714,1.778-.086.088-.193.134-.111.305a15.617,15.617,0,0,0,1.674,2.89,2.947,2.947,0,0,0,1.326,1.1.439.439,0,0,1,.274.548.446.446,0,0,1-.477.386c-.882-.015-1.768,0-2.645-.077a13,13,0,0,1-4.864-1.39,10.9,10.9,0,0,1-.949-.565.547.547,0,0,0-.483-.084,19.51,19.51,0,0,1-11.924-.635,13.466,13.466,0,0,1-6.113-4.393,8.689,8.689,0,0,1-1.811-4.411.894.894,0,0,0-.049-.162Zm27.271,12.13c-.1-.132-.156-.209-.214-.283a14.144,14.144,0,0,1-1.946-3.3,1.053,1.053,0,0,1,.312-1.35,17.822,17.822,0,0,0,1.645-1.682,7.436,7.436,0,0,0,.237-9.346,11.985,11.985,0,0,0-5.446-4.084,18.435,18.435,0,0,0-12.732-.423,13.069,13.069,0,0,0-6.015,3.772,7.809,7.809,0,0,0-2.113,5.106,7.754,7.754,0,0,0,2.085,5.378,13.073,13.073,0,0,0,5.862,3.749,18.777,18.777,0,0,0,10.838.339,1.308,1.308,0,0,1,1.048.176,16.908,16.908,0,0,0,1.979,1.035A13.423,13.423,0,0,0,1644.271-1331.966Z" transform="translate(-1617 1354.347)" fill="#777"/><path d="M1962.029-1107.245c-.119-.023-.243-.04-.363-.072a1.471,1.471,0,0,1-1.088-1.388c-.009-.34-.007-.679,0-1.019a1.468,1.468,0,0,1,1.449-1.513q1.28-.037,2.562,0a1.481,1.481,0,0,1,1.455,1.573c.007,1.67,0,3.339,0,5.009v.349c.172.039.324.06.469.107a1.458,1.458,0,0,1,1.007,1.329c.012.378.013.757,0,1.135a1.451,1.451,0,0,1-1.412,1.426q-2.053.027-4.106,0a1.459,1.459,0,0,1-1.426-1.443c-.008-.31,0-.621,0-.932a1.5,1.5,0,0,1,1.455-1.6Zm3.019.5c0-.961,0-1.923,0-2.884,0-.4-.162-.611-.5-.617-.825-.015-1.651-.014-2.476,0a.48.48,0,0,0-.5.529c-.007.311-.007.622,0,.932a.482.482,0,0,0,.5.52c.106.008.213,0,.32,0,.5.005.658.159.659.668,0,1.107,0,2.214,0,3.321,0,.943-.01.953-.951.99a.486.486,0,0,0-.533.52c-.008.31-.007.621,0,.932a.489.489,0,0,0,.526.531q1.952.009,3.9,0a.487.487,0,0,0,.53-.526q.012-.466,0-.932a.483.483,0,0,0-.528-.525c-.107,0-.214,0-.32,0-.462-.005-.631-.171-.632-.635C1965.046-1104.857,1965.048-1105.8,1965.048-1106.74Z" transform="translate(-1948.636 1119.699)" fill="#777"/><path d="M1977.245-1277.462a2.492,2.492,0,0,1-2.489-2.474,2.49,2.49,0,0,1,2.5-2.488,2.489,2.489,0,0,1,2.474,2.488A2.487,2.487,0,0,1,1977.245-1277.462Zm0-.993a1.491,1.491,0,0,0,1.487-1.478,1.493,1.493,0,0,0-1.5-1.5,1.493,1.493,0,0,0-1.487,1.479A1.492,1.492,0,0,0,1977.25-1278.455Z" transform="translate(-1962.329 1284.922)" fill="#777"/><path d="M1688.792-1205.671a5.834,5.834,0,0,1,1.534-3.569,15.676,15.676,0,0,1,1.514-1.438c.313-.274.631-.247.815,0s.123.523-.219.784a7.616,7.616,0,0,0-2.027,2.258,4.488,4.488,0,0,0-.63,2.182.505.505,0,0,1-.522.541c-.292-.015-.467-.235-.466-.587Z" transform="translate(-1686.298 1215.858)" fill="#777"/><path d="M1818.552-1238.954a.486.486,0,0,1-.49.5.488.488,0,0,1-.491-.5.486.486,0,0,1,.476-.484A.487.487,0,0,1,1818.552-1238.954Z" transform="translate(-1810.603 1243.43)" fill="#777"/></svg>