<svg xmlns="http://www.w3.org/2000/svg" width="40" height="36" viewBox="0 0 40 36"><g transform="translate(0)"><path d="M-1110.742-451.9a3.717,3.717,0,0,1,.675-.493q3.732-1.614,7.481-3.191a1.986,1.986,0,0,1,.751-.157q13.781-.012,27.561-.006a3.358,3.358,0,0,1,3.523,3.6,11.744,11.744,0,0,1-.036,1.594,3.312,3.312,0,0,1-3.365,2.97c-2.811.009-5.621,0-8.432,0q-9.584,0-19.168-.008a2.4,2.4,0,0,1-.9-.186q-3.712-1.56-7.409-3.159a3.913,3.913,0,0,1-.68-.486Zm29.308-2.465h-19.948v2.013h11.619a2.537,2.537,0,0,1,.466.026.656.656,0,0,1,.546.675.653.653,0,0,1-.578.646,3.454,3.454,0,0,1-.467.017h-11.583v2.019h19.941v-2.019h-3.483c-.391,0-.781.011-1.171-.01a.66.66,0,0,1-.656-.655.683.683,0,0,1,.628-.689,2.714,2.714,0,0,1,.351-.01h4.334Zm4.711-.007v5.412c.083.008.134.016.186.016.833,0,1.666.012,2.5,0a2,2,0,0,0,1.95-1.947c.022-.518.022-1.039,0-1.557a1.961,1.961,0,0,0-1.729-1.91C-1074.775-454.42-1075.739-454.377-1076.723-454.377Zm-1.379.018h-1.943v5.388h1.943Zm-24.678,5.055v-4.733c-.629.268-1.216.51-1.794.774a.356.356,0,0,0-.155.269c-.012.876-.01,1.753,0,2.629,0,.092.043.238.106.267C-1104.026-449.827-1103.417-449.575-1102.781-449.3Zm-3.309-3.323-2.248.957,2.248.956Z" transform="translate(1110.742 478.136)" fill="#fff"/><path d="M-1061.1-606.235h-.574q-7.828,0-15.657.008a1.444,1.444,0,0,1-1.132-.478q-5.6-5.772-11.229-11.521c-.064-.066-.131-.127-.216-.209a1.858,1.858,0,0,0-.2.175,17.049,17.049,0,0,0-4.141,13c.083.948.309,1.884.486,2.822.094.5-.058.857-.444.953-.4.1-.722-.114-.837-.612-1.672-7.207.054-13.43,5.35-18.471a16.96,16.96,0,0,1,12.964-4.7,18.094,18.094,0,0,1,16.458,14.055,19.067,19.067,0,0,1,.322,6.853c-.066.493-.361.769-.76.714s-.61-.4-.559-.9C-1061.212-605.086-1061.161-605.626-1061.1-606.235Zm-17.319-2.426V-623.9c-3.04-.225-9.127,2.39-10.5,4.483ZM-1068.328-621c-.088.068-.122.089-.149.116q-4.2,4.3-8.387,8.608a.78.78,0,0,0-.182.487c-.017.93-.009,1.861-.007,2.792a2.39,2.39,0,0,0,.029.279L-1066.5-619.5Zm-7.705,13.366c.157.012.267.028.377.028.882,0,1.765.015,2.646-.01a.9.9,0,0,0,.569-.241q4.087-4.159,8.156-8.336a1.8,1.8,0,0,1,.4-.231l-1.588-2.029Zm-1.017-6.535,7.453-7.641c-.661-.311-1.349-.65-2.052-.952a.486.486,0,0,0-.421.125q-2.408,2.44-4.793,4.9a.529.529,0,0,0-.179.29C-1077.055-616.344-1077.05-615.245-1077.05-614.168Zm13.853-1.085-7.437,7.622c-.01,0,.023.02.056.02,1.012,0,2.024.01,3.036,0a.531.531,0,0,0,.335-.153q2.444-2.487,4.87-4.992a.4.4,0,0,0,.092-.338C-1062.556-613.833-1062.889-614.563-1063.2-615.253Zm-10.167-8.1a15.065,15.065,0,0,0-3.646-.569v4.3Zm11.739,11.94-3.689,3.781h4.266Z" transform="translate(1097.718 625.294)" fill="#fff"/><path d="M-1025.084-381.75a18.251,18.251,0,0,1-9.648-2.745c-.416-.256-.548-.536-.423-.878.164-.452.595-.559,1.08-.319a29.553,29.553,0,0,0,3.412,1.612,16.677,16.677,0,0,0,14.279-1.421c.1-.06.2-.126.308-.184a.689.689,0,0,1,1,.2.674.674,0,0,1-.293.952c-.7.4-1.407.809-2.141,1.145A17.924,17.924,0,0,1-1025.084-381.75Z" transform="translate(1045.07 417.75)" fill="#fff"/></g></svg>