<svg xmlns="http://www.w3.org/2000/svg" width="26" height="26" viewBox="0 0 26 26"><g transform="translate(-434.5 20.5)"><path d="M445.139-20h1.736c.329.05.659.1.987.152a11,11,0,0,1,8.331,14.974c-.368.89-.89,1.715-1.38,2.645a1.8,1.8,0,0,1,.229.18C456.418-.677,457.8.689,459.16,2.079A10.465,10.465,0,0,1,460,3.194v.625A1.769,1.769,0,0,1,458.819,5h-.625a9.478,9.478,0,0,1-1.069-.789c-1.162-1.128-2.3-2.282-3.441-3.429-.334-.335-.659-.678-.992-1.021-.1.068-.17.11-.234.156a10.9,10.9,0,0,1-7.524,2.043,10.961,10.961,0,0,1-9.522-8.017c-.186-.7-.277-1.424-.412-2.137v-1.6c.045-.3.094-.591.135-.887a10.984,10.984,0,0,1,7.9-8.906C443.728-19.765,444.438-19.864,445.139-20Zm.852,19.045a8.014,8.014,0,0,0,8.052-8,8.017,8.017,0,0,0-8.02-8.071,8.013,8.013,0,0,0-8.051,8A8.013,8.013,0,0,0,445.991-.955Z" fill="#585858" stroke="rgba(0,0,0,0)" stroke-width="1"/></g></svg>