<svg xmlns="http://www.w3.org/2000/svg" width="35" height="35" viewBox="0 0 35 35"><path d="M2641.335,5000.263a17.5,17.5,0,1,0,17.5,17.5A17.52,17.52,0,0,0,2641.335,5000.263Zm10.135,11.131a.5.5,0,0,1-.1.325,8.066,8.066,0,0,1-1.624,1.7c-.093.07-.249.144-.249.274,0,3.371-.861,6.737-3.318,9.179a12.352,12.352,0,0,1-11.99,2.8,11.5,11.5,0,0,1-2.318-.928c-.245-.134-.485-.272-.722-.429-.06-.047-.1-.092-.054-.124s.09-.028.277,0a8.2,8.2,0,0,0,3.469-.444,5.3,5.3,0,0,0,2.284-1.212c.008-.012.018-.012.027-.026-.152-.036-.3-.036-.455-.062a4.476,4.476,0,0,1-3.345-2.8c-.044-.111,0-.17.116-.147a4.777,4.777,0,0,0,1.592-.05,2.453,2.453,0,0,1-.54-.164,4.313,4.313,0,0,1-2.658-3.438,2.64,2.64,0,0,1-.027-.482c.008-.111.058-.146.156-.084a4.294,4.294,0,0,0,1.623.455c-.183-.143-.352-.3-.517-.455a4.266,4.266,0,0,1-.727-5.039c.081-.12.134-.12.232-.009a13.069,13.069,0,0,0,8.41,4.281c.089.013.1,0,.084-.1a4.5,4.5,0,0,1,.043-1.757,4.263,4.263,0,0,1,.832-1.665,4.445,4.445,0,0,1,1.391-1.137,4.353,4.353,0,0,1,1.726-.488,4.11,4.11,0,0,1,1.818.294,4.322,4.322,0,0,1,1.187.727,1.845,1.845,0,0,1,.213.218.162.162,0,0,0,.168.045,10.549,10.549,0,0,0,2.448-.937.111.111,0,0,1,.108-.008c.036.026.022.071,0,.106a3.77,3.77,0,0,1-.687,1.25c-.2.243-.685.844-1.017.9a8.337,8.337,0,0,0,2.06-.589c.083-.038.078-.054.078,0Z" transform="translate(-2623.836 -5000.263)" fill="#fff"/><g transform="translate(13.242 25.828)"><path d="M2644.57,5040.544Z" transform="translate(-2644.57 -5040.544)" fill="#fff" fill-rule="evenodd"/></g><g transform="translate(13.129 25.828)"><path d="M2644.51,5040.544c-.031,0-.395,0,0,0Z" transform="translate(-2644.327 -5040.544)" fill="#fff" fill-rule="evenodd"/></g><g transform="translate(13.971 25.829)"><path d="M2645.641,5040.566c0-.041.424,0,0,0C2645.641,5040.545,2645.693,5040.566,2645.641,5040.566Z" transform="translate(-2645.641 -5040.548)" fill="#fff" fill-rule="evenodd"/></g><g transform="translate(21.103 9.124)"><path d="M2656.86,5014.494a.083.083,0,0,1-.1,0Z" transform="translate(-2656.761 -5014.494)" fill="#fff" fill-rule="evenodd"/></g></svg>