<svg xmlns="http://www.w3.org/2000/svg" width="35" height="35" viewBox="0 0 35 35"><path d="M2102.209,6746.473h2.836v-2.856h-2.519A20.273,20.273,0,0,0,2102.209,6746.473Z" transform="translate(-2088.215 -6729.642)" fill="#fff"/><path d="M2102.526,6808.287h2.519v-2.856h-2.836A20.273,20.273,0,0,0,2102.526,6808.287Z" transform="translate(-2088.215 -6787.261)" fill="#fff"/><path d="M2112.992,6868.544a5.5,5.5,0,0,0,1.548,2.146v-3.447H2112.5A12,12,0,0,0,2112.992,6868.544Z" transform="translate(-2097.763 -6844.93)" fill="#fff"/><path d="M2112.992,6676.284a12,12,0,0,0-.5,1.3h2.044v-3.447A5.5,5.5,0,0,0,2112.992,6676.284Z" transform="translate(-2097.763 -6664.898)" fill="#fff"/><path d="M2201.224,6682.438h2.63a9.577,9.577,0,0,0-3.87-3.042,10.463,10.463,0,0,1,.492.953A14.374,14.374,0,0,1,2201.224,6682.438Z" transform="translate(-2179.437 -6669.786)" fill="#fff"/><path d="M2055.935,6680.35a10.463,10.463,0,0,1,.492-.953,9.579,9.579,0,0,0-3.87,3.042h2.63A14.317,14.317,0,0,1,2055.935,6680.35Z" transform="translate(-2041.974 -6669.786)" fill="#fff"/><path d="M2032.166,6805.431h-3.781a9.439,9.439,0,0,0,.748,2.856h3.323A22.525,22.525,0,0,1,2032.166,6805.431Z" transform="translate(-2019.443 -6787.261)" fill="#fff"/><path d="M2055.187,6867.243h-2.63a9.575,9.575,0,0,0,3.87,3.042,10.517,10.517,0,0,1-.492-.953A14.323,14.323,0,0,1,2055.187,6867.243Z" transform="translate(-2041.974 -6844.895)" fill="#fff"/><path d="M2032.456,6743.617h-3.323a9.439,9.439,0,0,0-.748,2.856h3.781A22.525,22.525,0,0,1,2032.456,6743.617Z" transform="translate(-2019.443 -6729.642)" fill="#fff"/><path d="M2165.306,6676.284a5.5,5.5,0,0,0-1.548-2.146v3.447h2.044A12,12,0,0,0,2165.306,6676.284Z" transform="translate(-2145.536 -6664.898)" fill="#fff"/><path d="M2200.477,6869.332a10.643,10.643,0,0,1-.492.953,9.576,9.576,0,0,0,3.87-3.042h-2.63A14.352,14.352,0,0,1,2200.477,6869.332Z" transform="translate(-2179.438 -6844.895)" fill="#fff"/><path d="M2221.543,6808.287h3.323a9.446,9.446,0,0,0,.748-2.856h-3.78A22.479,22.479,0,0,1,2221.543,6808.287Z" transform="translate(-2199.556 -6787.261)" fill="#fff"/><path d="M1913.478,6537.649a17.5,17.5,0,1,0,17.5,17.5A17.5,17.5,0,0,0,1913.478,6537.649Zm9.083,22.06a.958.958,0,0,1-.057.111,10.165,10.165,0,1,1,0-9.341.9.9,0,0,1,.057.112,10.152,10.152,0,0,1,0,9.118Z" transform="translate(-1895.978 -6537.649)" fill="#fff"/><path d="M2221.543,6743.617a22.524,22.524,0,0,1,.291,2.856h3.78a9.446,9.446,0,0,0-.748-2.856Z" transform="translate(-2199.556 -6729.642)" fill="#fff"/><path d="M2163.758,6805.431v2.856h2.519a20.309,20.309,0,0,0,.317-2.856Z" transform="translate(-2145.588 -6787.261)" fill="#fff"/><path d="M2166.277,6743.617h-2.519v2.856h2.836A20.309,20.309,0,0,0,2166.277,6743.617Z" transform="translate(-2145.588 -6729.642)" fill="#fff"/><path d="M2163.758,6870.69a5.5,5.5,0,0,0,1.548-2.146,11.945,11.945,0,0,0,.5-1.3h-2.044Z" transform="translate(-2145.536 -6844.93)" fill="#fff"/></svg>