<svg xmlns="http://www.w3.org/2000/svg" width="35" height="35" viewBox="0 0 35 35"><path d="M2117.324,6749.832l6.817-3.936-6.817-3.936Z" transform="translate(-2102.552 -6728.396)" fill="#fff"/><path d="M1913.478,6537.649a17.5,17.5,0,1,0,17.5,17.5A17.5,17.5,0,0,0,1913.478,6537.649Zm11.184,23.119a2.923,2.923,0,0,1-2.064,2.063c-1.821.488-9.12.488-9.12.488s-7.3,0-9.121-.488a2.924,2.924,0,0,1-2.064-2.063,32.606,32.606,0,0,1,0-11.238,2.924,2.924,0,0,1,2.064-2.064c1.821-.488,9.121-.488,9.121-.488s7.3,0,9.12.488a2.924,2.924,0,0,1,2.064,2.064,32.606,32.606,0,0,1,0,11.238Z" transform="translate(-1895.978 -6537.649)" fill="#fff"/></svg>